<?xml version="1.0" encoding="UTF-8" standalone="no"?>
<!-- Created with Inkscape (http://www.inkscape.org/) -->

<svg
   width="224.36176mm"
   height="69.150505mm"
   viewBox="0 0 224.36176 69.150505"
   version="1.1"
   id="svg360"
   xmlns="http://www.w3.org/2000/svg"
   xmlns:svg="http://www.w3.org/2000/svg">
  <defs
     id="defs357" />
  <g
     id="layer1"
     transform="translate(-0.046875,-0.10351563)">
    <g
       aria-label="Captain Dirgo"
       id="text535"
       style="font-size:55.6906px;font-family:Ecolier_court;-inkscape-font-specification:'Ecolier_court, Normal';fill:#ffffff;stroke:#ffffff;stroke-width:1.041">
      <g
         id="path587">
        <path
           style="color:#000000;-inkscape-font-specification:'Ecolier_court, Normal';stroke:none;-inkscape-stroke:none"
           d="m 33.258394,35.263046 v -0.723977 q -0.668287,0.94674 -2.004862,2.060552 -1.392265,1.169502 -2.951602,2.283314 l -0.94674,0.89105 q 0.501216,-0.167072 1.336575,-0.668287 0.723977,-0.445525 1.726408,-1.113812 0.835359,-0.612597 1.615028,-1.336575 0.779668,-0.723977 1.225193,-1.392265 z M 21.062152,34.984593 21.284915,34.65045 q -0.501216,-1.336575 -0.501216,-3.341436 0,-1.83779 0.278453,-2.673149 0.612597,-1.670718 1.7821,-2.561768 1.113812,-0.835359 2.450386,-0.835359 1.058121,0 2.060552,0.556906 1.225193,0.612597 2.004862,2.394696 0.723978,1.782099 0.723978,4.232486 0,1.670718 -0.389834,3.452817 -0.723978,2.171933 -2.784531,3.73127 -2.116242,1.615028 -4.956463,1.893481 -1.949171,-0.278453 -3.230055,-1.225193 -1.336574,-0.946741 -2.450386,-3.007293 -0.779669,-1.169503 -1.113812,-4.455248 -0.334144,-3.285746 -0.334144,-7.685303 0,-2.004862 0.05569,-3.508508 0,-0.779668 0.05569,-1.503646 l 0.05569,-2.004862 q 0.445525,-3.508508 0.94674,-5.680441 0.501215,-2.171934 1.336574,-4.2881765 1.058122,-2.227624 2.060553,-3.5641985 1.00243,-1.3365744 2.617458,-2.5617676 1.113812,-0.556906 2.004862,-0.7239778 0.835359,-0.1670718 1.89348,-0.1670718 2.78453,0 4.121105,2.78453 0.278453,0.7239778 0.278453,1.6150275 0,1.949171 -1.113813,4.6223197 -1.169502,2.72884 -3.341436,5.290607 -2.227624,2.617459 -5.401988,4.288177 -3.230055,1.670718 -7.072706,1.670718 -2.673149,0 -4.9564638,-0.779669 Q 6.0813805,19.83675 4.4663531,18.444485 2.7956351,17.10791 1.9045854,15.325811 1.0135358,13.543712 1.0135358,11.53885 q 0,-2.9516017 2.0605523,-5.7361317 Q 5.1346403,3.0181882 9.367126,0.84625475 H 8.5874576 Q 4.9118779,2.4612822 2.7399445,5.4128841 0.568011,8.3644859 0.568011,11.650231 q 0,2.840221 1.7820992,5.290608 1.7264087,2.450386 5.2906072,3.954032 4.2324856,0.94674 6.2930376,0.94674 4.845083,0 8.632044,-2.617458 3.73127,-2.617458 6.460109,-7.573922 0.779669,-1.6707176 1.225194,-3.2300545 0.389834,-1.5036462 0.389834,-2.78453 0,-1.7820993 -0.89105,-3.0629831 -0.89105,-1.2808838 -3.062983,-1.83778985 -0.222762,0 -0.501215,-0.0556906 h -0.501216 q -3.564198,0 -6.46011,2.72883945 -2.895911,2.7288395 -5.290607,7.4068496 -1.169502,2.227624 -1.949171,5.179226 -0.779668,2.951602 -0.779668,6.571491 0,5.680442 2.116243,11.862098 0.167072,0.222763 0.668287,1.058122 0.835359,1.392265 1.503646,2.339005 0.668287,0.94674 1.670718,1.89348 1.002431,0.946741 2.339005,1.503647 1.336575,0.556906 2.951602,0.556906 3.508508,-0.501216 5.56906,-2.506077 2.004862,-1.949171 2.339006,-4.733701 0.111381,-1.336575 0.111381,-2.171934 0,-3.619889 -1.392265,-5.457679 -1.447956,-1.83779 -3.786961,-1.89348 -2.004862,0.111381 -3.397127,1.670718 -1.447955,1.615027 -1.447955,4.121104 0,1.225194 0.167071,2.283315 0.111382,1.113812 0.445525,1.89348 z"
           id="path614" />
        <path
           style="color:#000000;-inkscape-font-specification:'Ecolier_court, Normal';stroke:none;-inkscape-stroke:none"
           d="m 25.683594,0.15820312 c -2.508966,0 -4.808232,0.97877598 -6.816407,2.87109378 -1.98653,1.8719234 -3.779948,4.390945 -5.396484,7.5488281 -0.800339,1.525551 -1.462878,3.286783 -1.990234,5.283203 C 11.1116,17.25776 11.042525,18.896569 10.929688,20.5 10.1309,20.374527 9.2658353,20.373214 8.5332031,20.123047 7.0651436,19.621758 5.8278381,18.931124 4.8066406,18.050781 l -0.00781,-0.0059 -0.00781,-0.0078 C 3.7300752,17.188357 2.9302101,16.211983 2.3710938,15.09375 1.8119775,13.975518 1.5332031,12.798525 1.5332031,11.539063 c 0,-1.8466105 0.6375937,-3.6401187 1.9589844,-5.4257818 C 4.8030149,4.3418928 6.8336748,2.7309617 9.6054688,1.3085937 L 9.3671875,0.32617188 H 8.4785156 l -0.099609,0.0429687 C 5.8561766,1.4776127 3.8244788,3.0593921 2.3203125,5.1035156 0.81771354,7.145509 0.046875,9.3452097 0.046875,11.650391 c 0,2.002341 0.63848344,3.88475 1.8828125,5.595703 1.2192596,1.727384 3.0692071,3.10012 5.5078125,4.128906 l 0.044922,0.01758 0.044922,0.0098 c 1.4343168,0.320834 2.1638341,0.323938 3.236328,0.484375 -0.0054,0.243961 -0.08008,0.4313 -0.08008,0.679687 0,3.851595 0.71788,7.861976 2.144531,12.029297 l 0.02734,0.07813 0.04883,0.06641 c 0.0739,0.09854 0.307154,0.461143 0.638672,1.013672 0.561631,0.936052 1.069468,1.725204 1.52539,2.371094 0.469094,0.664549 1.049006,1.321674 1.738282,1.972656 0.715202,0.675469 1.551029,1.211692 2.496093,1.605469 0.959754,0.399897 2.015833,0.595703 3.152344,0.595703 h 0.03711 l 0.03516,-0.0039 c 2.005274,-0.286468 3.620591,-1.029996 4.976562,-2.054688 l 0.01563,0.02734 c 0.399982,-0.133327 0.865045,-0.370199 1.439453,-0.714844 l 0.0039,-0.002 0.002,-0.002 c 0.49026,-0.301699 1.070199,-0.675055 1.742187,-1.123047 l 0.0098,-0.0078 0.0098,-0.0059 c 0.573485,-0.420555 1.126097,-0.879087 1.660157,-1.375 0.542071,-0.503351 0.978058,-0.994431 1.304687,-1.484375 l 0.08789,-0.132812 v -0.15625 -2.365235 l -0.945313,1.339844 c -0.406704,0.576164 -1.045956,1.237516 -1.914062,1.960938 v 0.002 h -0.002 c -0.206966,0.173851 -0.445547,0.337712 -0.658203,0.509765 0.26819,-0.674785 0.528476,-1.353838 0.61914,-2.109375 l 0.002,-0.0098 v -0.0098 c 0.075,-0.899992 0.113282,-1.634805 0.113282,-2.214844 0,-2.479987 -0.470543,-4.415177 -1.498047,-5.771484 l -0.002,-0.0039 -0.0039,-0.0039 c -1.048039,-1.330203 -2.490608,-2.051489 -4.183593,-2.091797 h -0.01953 -0.02148 c -1.464233,0.08135 -2.749117,0.716198 -3.755859,1.84375 -1.054629,1.176317 -1.580079,2.697789 -1.580079,4.46875 0,0.83004 0.0566,1.605846 0.169922,2.333984 0.07819,0.781854 0.234511,1.463858 0.484375,2.046875 l 0.378907,0.882813 0.533203,-0.798829 0.36914,-0.55664 -0.09375,-0.25 c -0.304101,-0.810935 -0.466796,-1.865006 -0.466797,-3.158203 0,-1.196131 0.103093,-2.052812 0.251954,-2.501953 0.38159,-1.035851 0.91612,-1.79463 1.603515,-2.31836 0.661439,-0.494988 1.353654,-0.728515 2.134766,-0.728515 0.614097,0 1.206317,0.156721 1.80664,0.490234 l 0.0098,0.0059 0.01172,0.0059 c 0.674009,0.337004 1.268121,1.019464 1.755859,2.130859 0.450023,1.11003 0.685547,2.449328 0.685547,4.029297 0,1.063897 -0.126807,2.168478 -0.375,3.3125 -0.44984,1.332186 -1.297463,2.476058 -2.59375,3.457031 v 0.002 h -0.002 c -1.313389,1.002324 -2.842614,1.584659 -4.617188,1.771485 -1.204339,-0.18008 -2.184439,-0.546482 -2.943359,-1.107422 l -0.0059,-0.0039 -0.0039,-0.0039 C 18.222084,39.281983 17.447452,38.34595 16.730469,37.019531 L 16.71875,37 16.70508,36.97852 c -0.41402,-0.62103 -0.808076,-2.062611 -1.027344,-4.21875 -0.220396,-2.167232 -0.332031,-4.712955 -0.332031,-7.632813 0,-1.135646 0.02008,-2.084487 0.04687,-2.974609 2.724373,-0.23605 5.261037,-0.974081 7.46875,-2.5 l 0.002,-0.002 h 0.002 c 2.565125,-1.799416 4.768293,-4.391802 6.617188,-7.75 l 0.0078,-0.01367 0.0078,-0.01563 c 0.529888,-1.13557 0.94828,-2.2390886 1.25384,-3.308548 l 0.002,-0.00586 0.002,-0.00586 c 0.2689,-1.037185 0.40625,-2.0092897 0.40625,-2.9160157 0,-1.2748149 -0.325719,-2.4125583 -0.984375,-3.359375 C 29.49068,1.287751 28.340771,0.62133168 26.816406,0.23046875 l -0.06445,-0.015625 H 26.6875 c -0.105133,0 -0.240929,-0.0149827 -0.400391,-0.046875 l -0.05078,-0.009766 z m 0.167968,1.48632808 c 1.675105,0 2.809628,0.7602677 3.638672,2.4726563 0.155278,0.4112883 0.240235,0.8745738 0.240235,1.40625 0,1.1991808 -0.348382,2.6813969 -1.072266,4.4199219 -0.756914,1.7656956 -1.841348,3.4851986 -3.259766,5.1582036 -1.441072,1.692708 -3.185439,3.079507 -5.246093,4.164062 -1.461623,0.755689 -3.055641,1.146996 -4.714844,1.371094 0.008,-0.15849 0.0057,-0.328166 0.01758,-0.482422 l 0.002,-0.01172 0.05469,-1.984375 c 0.294818,-2.317968 0.606694,-4.194762 0.933593,-5.611328 0.326571,-1.415142 0.764827,-2.8128502 1.308594,-4.1933594 0.692804,-1.4567381 1.362531,-2.6155353 1.998047,-3.4628906 0.625133,-0.8335107 1.456476,-1.6445135 2.482422,-2.4277344 0.688619,-0.3397169 1.304456,-0.5634331 1.820312,-0.6601562 h 0.002 0.0039 C 24.57601,1.6996417 25.173544,1.6445312 25.851562,1.6445312 Z M 18.40625,5.1523437 c -0.530234,0.8100965 -1.059832,1.6251409 -1.601563,2.765625 l -0.0078,0.015625 -0.0059,0.017578 c -0.566181,1.4343235 -1.019315,2.8877303 -1.359375,4.3613283 -0.340353,1.474864 -0.658633,3.382536 -0.957032,5.732422 l -0.002,0.02539 -0.05664,2.03125 c -0.01589,0.21031 -0.0144,0.435738 -0.02344,0.652344 -0.363645,0.02424 -0.698898,0.121094 -1.072265,0.121094 -0.495205,0 -0.896344,-0.173715 -1.369141,-0.214844 0.106366,-1.576695 0.18065,-3.183749 0.537109,-4.533203 0.511625,-1.936863 1.148434,-3.626853 1.90625,-5.070312 l 0.002,-0.002 v -0.002 C 15.630259,8.6425701 16.987723,6.7572617 18.40625,5.1523437 Z M 11.787109,22.039062 c 0.637791,0.0723 1.65947,0.322266 2.146485,0.322266 0.14614,0 0.271154,-0.05704 0.416015,-0.06055 -0.02401,0.862436 -0.04492,1.751427 -0.04492,2.826172 0,2.946212 0.110809,5.524523 0.335937,7.738281 0.201477,1.981193 0.530808,3.33147 1.035156,4.283203 -0.380389,-0.557593 -0.778284,-1.159771 -1.240234,-1.929687 -0.305309,-0.508849 -0.486589,-0.795022 -0.632813,-1 -1.385368,-4.059597 -2.078125,-7.942861 -2.078125,-11.652344 0,-0.194566 0.05907,-0.335864 0.0625,-0.527344 z m 15.800782,3.291016 0.01953,0.0098 c -0.0038,-0.0021 -0.0079,-0.0018 -0.01172,-0.0039 -0.0028,-0.0014 -0.005,-0.0044 -0.0078,-0.0059 z M 15.814453,37.515625 c 0.0052,0.0096 0.01239,0.01193 0.01758,0.02148 0.0033,0.0049 0.0045,0.01462 0.0078,0.01953 z"
           id="path616" />
      </g>
      <g
         id="path589">
        <path
           style="color:#000000;-inkscape-font-specification:'Ecolier_court, Normal';stroke:none;-inkscape-stroke:none"
           d="m 41.389245,36.933764 0.05569,1.113812 -0.05569,0.05569 q 0,0.111381 -0.05569,0.167072 -0.94674,1.726408 -1.782099,2.728839 -1.002431,0.723978 -2.060553,0.723978 -1.00243,0 -1.949171,-0.612596 -1.113812,-1.113813 -1.615027,-2.339006 -0.556906,-1.169502 -0.668287,-2.394696 v -0.835359 q 0,-2.84022 1.225193,-5.123535 1.002431,-1.559337 1.949171,-2.004862 0.89105,-0.445524 1.726409,-0.445524 1.113812,0 1.782099,0.556906 0.612596,0.556906 1.113812,1.392265 0.222762,0.389834 0.334143,0.501215 v 0.779668 q -0.612596,-1.559336 -1.392265,-2.227624 -0.835359,-0.612596 -1.559336,-0.612596 -0.556906,0 -0.835359,0.222762 -0.389835,0.222763 -0.556906,0.612597 -0.222763,0.334143 -0.723978,1.670718 -0.334144,1.559337 -0.445525,2.060552 -0.111381,0.612597 -0.222763,2.227624 0,0.111381 0.05569,0.278453 0,0.501216 0.05569,1.113812 0.05569,1.225193 0.222762,2.060552 0.167072,0.779669 0.835359,1.83779 0.723978,0.723978 1.447956,0.723978 1.113812,0 2.060552,-1.503646 0.89105,-1.503646 1.058121,-2.72884 z m 8.687734,-1.670718 v -0.779668 q -0.278453,1.002431 -1.559337,3.954033 -0.111381,0.222762 -0.501215,1.113812 -0.723978,0.94674 -1.169503,1.280884 -0.501215,0.334143 -1.113812,0.334143 -0.835359,-0.05569 -1.113812,-0.389834 -0.278453,-0.278453 -0.389834,-0.94674 l -0.05569,-0.334144 q 0,0 -0.05569,-0.278453 V 27.967578 h -2.72884 v 11.082429 l 0.111382,0.278453 q 0.389834,1.002431 1.225193,1.615028 0.779668,0.668287 2.78453,0.668287 1.058121,-0.278453 1.503646,-0.612597 0.389834,-0.278453 1.002431,-1.113812 0.222762,-0.389834 0.445525,-0.891049 l 0.167072,-0.334144 q 0.445524,-1.058121 0.501215,-1.169503 0.111381,-0.334143 0.222762,-0.612596 l 0.389835,-0.779669 0.111381,-0.278453 z"
           id="path620" />
        <path
           style="color:#000000;-inkscape-font-specification:'Ecolier_court, Normal';stroke:none;-inkscape-stroke:none"
           d="m 38.160156,27.447266 c -0.646854,0 -1.303452,0.174435 -1.953125,0.498046 -0.777094,0.367193 -1.466957,1.11006 -2.162109,2.191407 l -0.0098,0.01758 -0.0098,0.01758 c -0.859308,1.601438 -1.28711,3.400819 -1.28711,5.369141 v 0.859375 l 0.002,0.02344 c 0.07944,0.873896 0.321816,1.728689 0.712891,2.554688 0.364655,0.886606 0.941493,1.720789 1.720703,2.5 l 0.03906,0.03906 0.04687,0.0293 c 0.701505,0.453915 1.456155,0.697266 2.230468,0.697266 0.824125,0 1.626479,-0.28872 2.365235,-0.822266 l 0.05469,-0.03906 0.04102,-0.05078 c 0.362338,-0.434806 0.750811,-1.119545 1.130859,-1.728515 0.292388,0.699381 0.726915,1.301659 1.324219,1.74414 0.68728,0.57873 1.719701,0.785156 3.103516,0.785156 h 0.06836 l 0.06445,-0.01758 c 0.734055,-0.193172 1.276569,-0.397842 1.675781,-0.695312 0.354646,-0.253833 0.694666,-0.650397 1.117188,-1.226563 l 0.01758,-0.02344 0.01563,-0.02539 c 0.155528,-0.272174 0.308064,-0.580085 0.458984,-0.917969 l 0.0098,-0.02148 0.164062,-0.328125 0.0078,-0.01563 c 0.29654,-0.704284 0.495756,-1.157527 0.486328,-1.138672 l 0.01758,-0.0332 0.01172,-0.03516 c 0.06979,-0.209386 0.136891,-0.39707 0.205078,-0.56836 l 0.388672,-0.773437 0.119141,-0.298828 0.259765,-0.650391 v -0.09961 -0.78125 l -1.02149,-0.138677 c -0.16581,0.596916 -0.684318,1.926091 -1.535156,3.886719 -0.08501,0.171584 -0.241842,0.521369 -0.46875,1.039062 -0.444782,0.576283 -0.812097,0.971569 -1.023438,1.132813 -0.244359,0.160693 -0.49788,0.235028 -0.798828,0.238281 -0.46771,-0.0366 -0.700342,-0.161114 -0.730469,-0.197266 l -0.01563,-0.01758 -0.01563,-0.01758 c -0.06295,-0.06295 -0.181476,-0.276355 -0.246094,-0.664062 l -0.05664,-0.341797 -0.04687,-0.236328 v -11.71875 h -3.769531 v 1.412109 c -0.193427,-0.238506 -0.362365,-0.524557 -0.578125,-0.720703 l -0.0078,-0.0078 -0.0078,-0.0059 c -0.554776,-0.462313 -1.285944,-0.677734 -2.115235,-0.677734 z m -0.816406,0.68164 c -0.01403,0.008 -0.01745,0.0268 -0.03125,0.03516 -0.0097,0.0074 -0.02556,0.0021 -0.03516,0.0098 z m 4.566406,0.359375 h 1.6875 v 10.78125 l 0.06445,0.320313 0.05469,0.326172 c 0.05881,0.352868 0.221494,0.600862 0.375,0.861328 -0.31141,-0.09199 -0.879278,-0.101602 -1.027344,-0.228516 l -0.01563,-0.01367 -0.01563,-0.01172 C 42.55433,40.172272 42.213668,39.725243 41.986317,39.140626 l -0.002,-0.0039 -0.07422,-0.1875 v -0.63086 l 0.06641,-0.06641 -0.06641,-1.304687 v -5.75 -0.994141 z M 38.4375,28.876953 c 0.330174,0 0.742549,0.153331 1.230469,0.505859 0.404039,0.351139 0.822745,1.009752 1.201172,1.949219 v 5.541016 c -0.09968,0.719331 -0.418579,1.563775 -0.984375,2.519531 -0.579524,0.91661 -1.106891,1.253906 -1.613282,1.253906 -0.298108,0 -0.639666,-0.164999 -1.041015,-0.552734 -0.391893,-0.634206 -0.643867,-1.182354 -0.732422,-1.591797 V 38.5 c -0.103804,-0.519599 -0.176628,-1.182678 -0.212891,-1.980469 l -0.002,-0.01172 v -0.01172 c -0.03597,-0.395651 -0.05469,-0.75154 -0.05469,-1.066407 v -0.08398 l -0.02539,-0.08008 c -0.0252,-0.0756 -0.02712,-0.117205 -0.02734,-0.109375 0.07269,-1.043595 0.148557,-1.782318 0.212891,-2.136719 5.8e-5,-3.21e-4 -5.8e-5,-0.0016 0,-0.002 0.074,-0.333318 0.21954,-1.00657 0.43164,-1.996094 0.322799,-0.856372 0.588591,-1.434644 0.658204,-1.539062 l 0.02734,-0.04102 0.01758,-0.04297 c 0.06778,-0.158156 0.16375,-0.267678 0.337891,-0.367187 l 0.03516,-0.01953 0.03125,-0.02539 c 0.05346,-0.04277 0.207896,-0.109375 0.509766,-0.109375 z m -1.771484,0.002 c -0.01988,0.03707 -0.06682,0.05324 -0.08398,0.0918 -0.217077,0.341048 -0.422657,0.84323 -0.748047,1.710938 l -0.01367,0.03516 -0.0078,0.03711 c -0.222674,1.039143 -0.371944,1.726483 -0.445313,2.056641 l -0.002,0.0098 -0.002,0.0098 c -0.08319,0.457559 -0.153752,1.201099 -0.228515,2.285156 l -0.002,0.01758 v 0.01953 c 0,0.109758 0.03126,0.203195 0.05664,0.300781 7.57e-4,0.34042 0.01868,0.712454 0.05469,1.115234 2.43e-4,0.0054 0.0017,0.0083 0.002,0.01367 3.18e-4,0.0035 -3.21e-4,0.0062 0,0.0098 0.03835,0.823192 0.11297,1.527741 0.230468,2.115234 l 0.002,0.0039 v 0.002 c 0.131065,0.611637 0.438408,1.270156 0.904296,2.007812 l 0.03125,0.04883 0.04102,0.04102 c 0.115682,0.115682 0.264841,0.09016 0.386719,0.185547 -0.321472,-0.07793 -0.643337,-0.102396 -0.96875,-0.306641 -0.675581,-0.686435 -1.168361,-1.390499 -1.464844,-2.115234 l -0.0059,-0.01367 -0.0059,-0.01367 c -0.34541,-0.725787 -0.54785,-1.458179 -0.617083,-2.20919 v -0.796875 c 0,-1.809242 0.386021,-3.416214 1.152344,-4.853516 0.608432,-0.942352 1.178519,-1.478383 1.648437,-1.724609 l 0.03125,-0.05859 c -0.006,0.009 -0.01549,0.03758 -0.02148,0.04687 0.01817,-0.0094 0.04662,-0.05801 0.06445,-0.06641 l 0.0059,-0.0039 z m 7.552734,12.230469 c 0.0049,0.0059 0.01651,0.0021 0.02148,0.0078 0.0067,0.007 0.0049,0.0205 0.01172,0.02734 z"
           id="path622" />
      </g>
      <g
         id="path591">
        <path
           style="color:#000000;-inkscape-font-specification:'Ecolier_court, Normal';stroke:none;-inkscape-stroke:none"
           d="m 49.909942,35.318737 2.78453,-7.072706 v -0.723978 l -2.78453,7.017016 z m 14.256793,5.903204 q -0.779668,0 -1.00243,-0.501216 Q 62.941542,40.21951 62.941542,39.32846 V 30.529345 Q 62.830161,30.362273 62.71878,30.08382 62.328946,29.13708 61.660658,28.580174 60.936681,28.023268 59.154581,28.023268 l -0.334143,0.278453 q -1.280884,1.002431 -2.004862,1.949171 -0.723978,0.94674 -1.503646,3.174365 1.280884,-2.450387 1.949171,-3.452818 0.612597,-0.891049 1.726409,-1.503646 h 0.222762 v 0 q 0.167072,-0.05569 0.222762,-0.05569 0.668288,0 0.89105,0.278453 0.167072,0.334144 0.278453,1.002431 0.05569,0.501216 0.111381,0.723978 v 8.632043 q 0.111381,1.058122 0.723978,1.83779 0.612597,0.835359 2.171933,0.835359 h 0.222763 0.278453 q 0.779668,-0.222762 1.169503,-0.556906 0.334143,-0.334143 0.835359,-1.169503 0.222762,-0.389834 0.445524,-1.058121 0.222763,-0.556906 0.501216,-1.559337 l 0.278453,-0.83536 0.167072,-0.612596 q 0.167071,-0.556906 0.167071,-0.612597 v -0.779668 q -0.111381,0.612596 -0.556906,2.060552 -0.445524,1.559337 -1.00243,3.007292 -0.445525,0.89105 -0.89105,1.225194 -0.501215,0.389834 -1.058122,0.389834 z M 52.750162,68.621717 h 2.72884 V 23.345258 h -2.72884 z"
           id="path626" />
        <path
           style="color:#000000;-inkscape-font-specification:'Ecolier_court, Normal';stroke:none;-inkscape-stroke:none"
           d="m 52.230469,22.824219 v 4.509765 l -0.01953,-0.0039 -2.822265,7.109375 v 0.878906 l 1.005859,0.191407 1.835938,-4.664063 V 69.142578 H 52.75 56 V 33.263672 c 0.706018,-1.331017 1.31728,-2.437288 1.689453,-2.996094 l 0.002,-0.002 c 0.339319,-0.492811 0.838034,-0.911021 1.472656,-1.275391 h 0.13086 l 0.08008,-0.02734 c 0.09492,-0.03164 0.194967,-0.0293 0.05859,-0.0293 0.346174,0 0.440308,0.07626 0.449218,0.07813 0.06627,0.154286 0.144552,0.392698 0.207032,0.767578 0.03195,0.28325 0.06475,0.48647 0.103515,0.664062 v 8.634766 l 0.002,0.02734 c 0.08297,0.788188 0.365423,1.499304 0.832032,2.095703 0.534001,0.720234 1.454332,1.042969 2.582031,1.042969 h 0.222656 0.351563 l 0.07031,-0.02148 c 0.563845,-0.161098 1.018558,-0.364958 1.365235,-0.662109 l 0.01563,-0.01172 0.01367,-0.01367 c 0.284104,-0.284103 0.569418,-0.697075 0.914063,-1.271484 l 0.002,-0.0039 0.0039,-0.0039 c 0.174385,-0.305172 0.329539,-0.684564 0.484375,-1.148437 0.156157,-0.393649 0.321566,-0.91029 0.503907,-1.564453 l 0.0078,-0.02148 c 2.07e-4,-7.44e-4 -2.07e-4,-0.0012 0,-0.002 l 0.275391,-0.824219 0.166015,-0.615234 0.0039,-0.01172 c 0.05415,-0.180744 0.09585,-0.324751 0.125,-0.43164 0.01498,-0.05491 0.02752,-0.101016 0.03711,-0.142578 0.0096,-0.04156 0.02344,-0.03638 0.02344,-0.175782 v -0.779297 l -1.03125,-0.09375 c -0.06531,0.359235 -0.248434,1.044718 -0.542968,2.001954 l -0.002,0.0039 -0.002,0.0059 c -0.289665,1.013833 -0.614045,1.989288 -0.974609,2.929688 -0.274471,0.544565 -0.546544,0.891353 -0.730469,1.029297 l -0.0039,0.002 -0.002,0.0039 c -0.260399,0.202533 -0.490413,0.279297 -0.740234,0.279297 -0.408243,0 -0.468415,-0.06321 -0.525391,-0.191406 -0.102016,-0.229535 -0.177734,-0.630983 -0.177734,-1.181641 V 30.371094 L 63.375,30.240234 c -0.04464,-0.06696 -0.108462,-0.186193 -0.173828,-0.349609 v -0.002 l -0.002,-0.0039 c -0.286079,-0.694763 -0.686355,-1.27281 -1.205078,-1.705079 l -0.0078,-0.0059 -0.0078,-0.0059 C 61.33225,27.670735 60.396559,27.50183 59.154275,27.50183 h -0.1875 L 58.5,27.892578 c -0.87907,0.687968 -1.578877,1.364565 -2.097656,2.042969 C 56.263116,30.117614 56.13483,30.547928 56,30.779297 v -7.955078 z m 1.041015,1.041015 h 1.6875 v 9.097657 c -0.03095,0.08472 -0.06266,0.107695 -0.09375,0.195312 -0.0061,0.01172 -0.0075,0.01362 -0.01367,0.02539 h 0.002 c -0.01116,0.03158 -0.02202,0.03836 -0.0332,0.07031 l 0.138672,0.06055 v 34.787109 h -1.6875 z m 7.644532,5.039063 c 0.09228,0.04274 0.358159,0.03893 0.419921,0.08594 0.368334,0.309611 0.670482,0.727921 0.902344,1.291016 0.05618,0.140072 0.120106,0.250189 0.183594,0.365234 v 8.681641 c 0,0.614117 0.07849,1.115927 0.257812,1.544922 -0.257443,-0.106241 -0.689013,-0.111262 -0.822265,-0.292969 l -0.0059,-0.0078 -0.0039,-0.0059 c -0.345923,-0.440265 -0.547267,-0.947678 -0.613281,-1.564453 v -8.648437 l -0.01563,-0.0625 c -0.02475,-0.099 -0.06365,-0.330668 -0.09961,-0.654297 v -0.01367 l -0.0039,-0.01367 c -0.04833,-0.289998 -0.129293,-0.483463 -0.199218,-0.705078 z"
           id="path628" />
      </g>
      <g
         id="path593">
        <path
           style="color:#000000;-inkscape-font-specification:'Ecolier_court, Normal';stroke:none;-inkscape-stroke:none"
           d="m 72.074811,41.221941 q -0.94674,-0.111381 -1.225193,-0.501216 -0.334144,-0.389834 -0.445525,-1.336574 -0.05569,-0.612597 -0.111381,-0.779669 V 14.156308 h -2.561768 v 24.114031 q 0.05569,0.111381 0.167072,0.556906 0.389834,1.336574 1.058122,2.116243 0.668287,0.779668 2.339005,0.779668 h 0.278453 0.278453 q 1.058121,-0.278453 1.503646,-0.556906 0.389834,-0.278453 0.94674,-1.113812 0.334144,-0.501215 0.835359,-1.670718 0.389835,-1.002431 0.89105,-2.283315 l 0.334144,-0.779668 v -0.779668 q -0.222763,0.835359 -0.779669,2.227624 -0.668287,1.615027 -1.280884,2.895911 -0.612596,0.94674 -1.058121,1.225193 -0.501216,0.334144 -1.169503,0.334144 z m 1.392265,-17.932374 v -0.445525 h -3.062983 v 0.445525 z"
           id="path632" />
        <path
           style="color:#000000;-inkscape-font-specification:'Ecolier_court, Normal';stroke:none;-inkscape-stroke:none"
           d="m 67.210937,13.636719 v 24.755859 l 0.05469,0.111328 c -0.02495,-0.04989 0.05517,0.162104 0.126953,0.449219 l 0.002,0.0098 0.0039,0.0098 c 0.274658,0.941683 0.653487,1.715201 1.16211,2.308594 0.585004,0.682505 1.539597,0.962891 2.734375,0.962891 h 0.279297 0.345703 l 0.06445,-0.01758 c 0.729321,-0.191926 1.258547,-0.376679 1.646484,-0.61914 l 0.01367,-0.0078 0.01367,-0.0098 c 0.364822,-0.260588 0.690568,-0.666711 1.078125,-1.248047 0.259778,-0.389667 0.538872,-0.962444 0.878906,-1.75586 l 0.0039,-0.0078 0.0039,-0.0078 c 0.25793,-0.663377 0.55348,-1.42106 0.884742,-2.267649 l 0.0059,-0.01563 0.36914,-0.861328 v -0.886719 l -1.023437,-0.134765 c -0.139234,0.522125 -0.392939,1.252856 -0.759766,2.169922 -0.435391,1.051941 -0.852524,1.989172 -1.25,2.822265 -0.381654,0.584263 -0.720495,0.950554 -0.880859,1.050782 l -0.0059,0.0039 -0.0078,0.0039 c -0.237679,0.158453 -0.510794,0.233272 -0.853516,0.238281 -0.52218,-0.07137 -0.792469,-0.225472 -0.828125,-0.27539 l -0.01367,-0.01758 -0.01563,-0.01758 C 71.138276,40.259304 70.99004,39.903626 70.921875,39.324219 v 0.01367 C 70.890691,38.994862 70.861863,38.804856 70.8125,38.603516 V 23.810547 h 3.175781 V 23.289062 22.324219 H 70.8125 v -8.6875 z m 1.041016,1.041015 h 1.519531 v 24.011719 l 0.02734,0.08008 c -0.0068,-0.0203 0.04984,0.265042 0.08594,0.66211 l 0.002,0.0059 v 0.0078 c 0.07402,0.629146 0.237712,1.101039 0.523437,1.486329 -0.36503,-0.105388 -0.891857,-0.131646 -1.058594,-0.326172 -0.382426,-0.446165 -0.708004,-1.083414 -0.953125,-1.923828 l 0.0039,0.01953 c -0.0562,-0.224798 -0.09862,-0.346886 -0.150391,-0.486328 z m 2.173828,26.345703 c 0.0042,0.0059 0.01527,0.004 0.01953,0.0098 0.0053,0.0064 0.0044,0.01909 0.0098,0.02539 z m 3.107422,0.296875 -0.01367,0.0098 c 0.0026,-0.0016 0.0052,-0.0062 0.0078,-0.0078 0.0017,-0.0011 0.0041,-8.08e-4 0.0059,-0.002 z"
           id="path634" />
      </g>
      <g
         id="path595">
        <path
           style="color:#000000;-inkscape-font-specification:'Ecolier_court, Normal';stroke:none;-inkscape-stroke:none"
           d="m 84.605207,36.933764 0.05569,1.113812 -0.05569,0.05569 q 0,0.111381 -0.05569,0.167072 -0.94674,1.726408 -1.782099,2.728839 -1.002431,0.723978 -2.060552,0.723978 -1.002431,0 -1.949171,-0.612596 -1.113812,-1.113813 -1.615028,-2.339006 -0.556906,-1.169502 -0.668287,-2.394696 v -0.835359 q 0,-2.84022 1.225193,-5.123535 1.002431,-1.559337 1.949171,-2.004862 0.89105,-0.445524 1.726409,-0.445524 1.113812,0 1.782099,0.556906 0.612597,0.556906 1.113812,1.392265 0.222763,0.389834 0.334144,0.501215 v 0.779668 q -0.612597,-1.559336 -1.392265,-2.227624 -0.835359,-0.612596 -1.559337,-0.612596 -0.556906,0 -0.835359,0.222762 -0.389834,0.222763 -0.556906,0.612597 -0.222762,0.334143 -0.723978,1.670718 -0.334143,1.559337 -0.445525,2.060552 -0.111381,0.612597 -0.222762,2.227624 0,0.111381 0.05569,0.278453 0,0.501216 0.05569,1.113812 0.05569,1.225193 0.222763,2.060552 0.167071,0.779669 0.835359,1.83779 0.723977,0.723978 1.447955,0.723978 1.113812,0 2.060552,-1.503646 0.89105,-1.503646 1.058122,-2.728839 z m 8.687734,-1.670718 v -0.779668 q -0.278453,1.002431 -1.559337,3.954033 -0.111381,0.222762 -0.501216,1.113812 -0.723977,0.94674 -1.169502,1.280884 -0.501216,0.334143 -1.113812,0.334143 -0.835359,-0.05569 -1.113812,-0.389834 -0.278453,-0.278453 -0.389834,-0.94674 l -0.05569,-0.334144 q 0,0 -0.05569,-0.278453 V 27.967578 h -2.728839 v 11.082429 l 0.111381,0.278453 q 0.389834,1.002431 1.225193,1.615028 0.779669,0.668287 2.78453,0.668287 1.058122,-0.278453 1.503647,-0.612597 0.389834,-0.278453 1.00243,-1.113812 0.222763,-0.389834 0.445525,-0.891049 l 0.167072,-0.334144 q 0.445525,-1.058121 0.501215,-1.169503 0.111382,-0.334143 0.222763,-0.612596 l 0.389834,-0.779669 0.111381,-0.278453 z"
           id="path638" />
        <path
           style="color:#000000;-inkscape-font-specification:'Ecolier_court, Normal';stroke:none;-inkscape-stroke:none"
           d="m 81.375,27.447266 c -0.646852,0 -1.301502,0.174437 -1.951172,0.498046 -0.777094,0.367193 -1.466957,1.11006 -2.162109,2.191407 l -0.01172,0.01758 -0.0098,0.01758 c -0.859308,1.601438 -1.287109,3.400819 -1.287109,5.369141 v 0.859375 l 0.002,0.02344 c 0.07944,0.873896 0.321815,1.728689 0.712891,2.554688 0.364656,0.886606 0.941493,1.720789 1.720703,2.5 l 0.03906,0.03906 0.04687,0.0293 c 0.701505,0.453915 1.458108,0.697266 2.232422,0.697266 0.824124,0 1.626479,-0.28872 2.365235,-0.822266 l 0.05273,-0.03906 0.04297,-0.05078 c 0.362338,-0.434806 0.750811,-1.119545 1.130859,-1.728515 0.292388,0.699381 0.726914,1.301659 1.324219,1.74414 0.68728,0.57873 1.719702,0.785156 3.103515,0.785156 h 0.06641 l 0.06641,-0.01758 c 0.734055,-0.193172 1.276569,-0.397842 1.675781,-0.695312 0.354646,-0.253833 0.694667,-0.650397 1.117188,-1.226563 l 0.01758,-0.02344 0.01367,-0.02539 c 0.1554,-0.271949 0.308187,-0.580421 0.458984,-0.917969 l 0.01172,-0.02148 0.164062,-0.328125 0.0059,-0.01563 c 0.296541,-0.704285 0.497703,-1.157516 0.488281,-1.138672 l 0.01563,-0.0332 0.01172,-0.03516 c 0.0698,-0.209391 0.138842,-0.397067 0.207031,-0.56836 l 0.386719,-0.773437 0.11914,-0.298828 0.259766,-0.650391 v -0.09961 -0.78125 l -1.02154,-0.138677 c -0.16581,0.596916 -0.684318,1.926091 -1.535157,3.886719 -0.08468,0.170921 -0.239443,0.520962 -0.464843,1.035156 -0.446981,0.579765 -0.815239,0.974892 -1.027344,1.136719 -0.244342,0.160676 -0.495956,0.235021 -0.796875,0.238281 -0.467768,-0.03659 -0.702294,-0.161112 -0.732422,-0.197266 l -0.01367,-0.01758 -0.01758,-0.01758 c -0.06295,-0.06295 -0.179523,-0.276355 -0.244141,-0.664062 l -0.05664,-0.341797 -0.04687,-0.236328 v -11.71875 h -3.771485 v 1.410156 C 83.89096,28.619571 83.723068,28.334359 83.507812,28.138672 L 83.5,28.130859 83.490234,28.125 C 82.935459,27.662687 82.204291,27.447266 81.375,27.447266 Z m -0.814453,0.68164 c -0.0136,0.0078 -0.01787,0.02512 -0.03125,0.0332 -0.01039,0.0078 -0.02689,0.0035 -0.03711,0.01172 z M 85.125,28.488281 h 1.689453 v 10.78125 l 0.0625,0.320313 0.05469,0.326172 c 0.05881,0.352868 0.221494,0.600862 0.375,0.861328 -0.31055,-0.09191 -0.877593,-0.101832 -1.025391,-0.228516 l -0.01563,-0.01367 -0.01563,-0.01172 c -0.478863,-0.351166 -0.821477,-0.798195 -1.048828,-1.382812 v -0.0039 l -0.07617,-0.1875 v -0.63086 l 0.06641,-0.06641 -0.06641,-1.34375 v -5.710937 -0.994141 z m -3.470703,0.388672 c 0.331066,0 0.742755,0.151235 1.232422,0.505859 0.403105,0.350573 0.819567,1.009186 1.197265,1.945313 v 5.550781 c -0.100455,0.718267 -0.417916,1.560096 -0.982422,2.513672 -0.579523,0.91661 -1.108843,1.253906 -1.615234,1.253906 -0.297441,0 -0.638907,-0.165023 -1.039062,-0.550781 C 80.053278,39.458434 79.800832,38.906488 79.712891,38.496094 79.60941,37.976949 79.536192,37.315767 79.5,36.519531 v -0.01172 l -0.002,-0.01172 c -0.03597,-0.395651 -0.05273,-0.75154 -0.05273,-1.066407 v -0.08398 l -0.02734,-0.08008 c -0.02393,-0.07179 -0.02677,-0.105755 -0.02734,-0.103516 0.07288,-1.048311 0.148376,-1.787183 0.212891,-2.142578 5.8e-5,-3.21e-4 -5.9e-5,-0.0016 0,-0.002 0.074,-0.33332 0.221491,-1.006559 0.433593,-1.996094 0.322799,-0.856372 0.588591,-1.434643 0.658203,-1.539062 l 0.02539,-0.04102 0.01953,-0.04297 c 0.06778,-0.158157 0.161797,-0.267678 0.335938,-0.367187 l 0.03516,-0.01953 0.03125,-0.02539 c 0.05346,-0.04277 0.209848,-0.109375 0.511719,-0.109375 z m -1.773438,0.002 c -0.01964,0.0367 -0.06504,0.05364 -0.08203,0.0918 -0.217076,0.341047 -0.422656,0.843231 -0.748047,1.710938 l -0.01367,0.03516 -0.0078,0.03711 c -0.222673,1.039143 -0.371944,1.726484 -0.445313,2.056641 l -0.002,0.0098 -0.002,0.0098 c -0.08319,0.457559 -0.155706,1.201099 -0.230469,2.285156 l -0.002,0.01758 v 0.01953 c 0,0.111176 0.03263,0.205875 0.05859,0.304687 8.8e-4,0.339442 0.0188,0.709955 0.05469,1.111328 2.44e-4,0.0054 0.0017,0.0083 0.002,0.01367 3.18e-4,0.0035 -3.21e-4,0.0062 0,0.0098 0.03835,0.823192 0.112969,1.52774 0.230468,2.115234 v 0.0039 0.002 c 0.131065,0.611637 0.438408,1.270155 0.904297,2.007812 l 0.03125,0.04883 0.04102,0.04102 c 0.114504,0.114504 0.262235,0.08896 0.382812,0.183594 C 79.73257,40.916023 79.411865,40.893274 79.087814,40.689655 78.412321,40.003025 77.92148,39.298947 77.625,38.574219 l -0.0059,-0.01367 -0.0059,-0.01367 C 77.267685,37.821298 77.063293,37.088907 76.99406,36.337895 V 35.54102 c 0,-1.810174 0.389139,-3.417603 1.15625,-4.855469 0.607303,-0.939503 1.177367,-1.476863 1.646484,-1.722656 l 0.03125,-0.05859 c -0.0059,0.0089 -0.01362,0.03772 -0.01953,0.04687 0.01789,-0.0092 0.04493,-0.05814 0.0625,-0.06641 l 0.0059,-0.0039 z m 7.554688,12.230469 c 0.0045,0.0054 0.01496,0.0025 0.01953,0.0078 0.0067,0.007 0.0049,0.0205 0.01172,0.02734 z"
           id="path640" />
      </g>
      <g
         id="path597">
        <path
           style="color:#000000;-inkscape-font-specification:'Ecolier_court, Normal';stroke:none;-inkscape-stroke:none"
           d="m 94.573855,22.120064 q -0.668287,0 -1.058122,0.334144 -0.445524,0.389834 -0.445524,0.94674 0,0.556906 0.445524,0.946741 0.389835,0.445524 1.058122,0.445524 0.556906,0 0.94674,-0.445524 0.389834,-0.389835 0.389834,-0.946741 0,-0.556906 -0.389834,-0.94674 -0.389834,-0.334144 -0.94674,-0.334144 z m 2.895911,19.101877 q -1.002431,0 -1.280884,-0.445525 -0.334143,-0.389834 -0.445525,-1.280884 V 39.32846 28.023268 h -2.617458 v 11.026739 0.05569 q 0.278453,1.113812 0.94674,1.83779 0.668288,0.779668 2.506077,0.779668 h 0.278453 0.334144 q 1.169503,-0.334143 1.615028,-0.612596 0.445524,-0.278453 0.94674,-1.113813 0.501219,-0.891049 1.169499,-2.506077 0.66829,-1.615027 0.83536,-2.171933 v -0.779668 q -0.27845,1.058121 -0.89105,2.561767 -0.61259,1.559337 -1.1695,2.506077 -0.556906,0.946741 -1.058121,1.280884 -0.501216,0.334144 -1.169503,0.334144 z"
           id="path644" />
        <path
           style="color:#000000;-inkscape-font-specification:'Ecolier_court, Normal';stroke:none;-inkscape-stroke:none"
           d="m 94.574219,21.599609 c -0.532275,0 -1.025011,0.140579 -1.396485,0.458985 l -0.002,0.002 -0.002,0.002 c -0.389456,0.340774 -0.625,0.827821 -0.625,1.337891 0,0.497409 0.237167,0.96729 0.609375,1.30664 0.356479,0.388839 0.868495,0.607422 1.416016,0.607422 0.503423,0 0.980222,-0.23487 1.320312,-0.615234 0.339898,-0.346375 0.53711,-0.811887 0.53711,-1.298828 0,-0.49272 -0.195449,-0.966934 -0.542969,-1.314454 l -0.01367,-0.01367 -0.01563,-0.01367 c -0.352876,-0.302466 -0.809786,-0.458985 -1.285156,-0.458985 z m 0,1.041016 c 0.257663,0 0.424386,0.06849 0.585937,0.201172 0.159545,0.165565 0.230469,0.317177 0.230469,0.558594 0,0.24982 -0.06602,0.407819 -0.238281,0.580078 l -0.01172,0.01172 -0.01172,0.01367 c -0.179003,0.204576 -0.322217,0.267578 -0.554687,0.267578 -0.329858,0 -0.503188,-0.08149 -0.666016,-0.267578 l -0.02344,-0.02734 -0.02539,-0.02344 c -0.204576,-0.179004 -0.269531,-0.322217 -0.269531,-0.554687 0,-0.231487 0.06506,-0.374785 0.267578,-0.552735 0.148188,-0.125873 0.360076,-0.207031 0.716797,-0.207031 z m -1.96875,4.861328 v 11.548828 0.119141 l 0.01563,0.0625 c 0.201818,0.807273 0.555813,1.500302 1.0625,2.052734 0.599474,0.694838 1.598996,0.958985 2.894531,0.958985 h 0.279297 0.40625 l 0.07031,-0.02148 c 0.799603,-0.228457 1.356803,-0.425394 1.748047,-0.669922 0.421,-0.263125 0.761166,-0.695692 1.117186,-1.289062 l 0.004,-0.0059 0.004,-0.0059 c 0.35156,-0.624995 0.7471,-1.474585 1.19727,-2.5625 0.44775,-1.082055 0.72509,-1.799118 0.85156,-2.220703 l 0.0234,-0.07422 v -0.855469 l -1.02539,-0.132812 c -0.17717,0.673246 -0.46644,1.509606 -0.86914,2.498047 l -0.002,0.0039 v 0.002 c -0.401868,1.022962 -0.784519,1.838189 -1.13476,2.433594 -0.35024,0.595408 -0.679043,0.965065 -0.898438,1.111328 -0.245306,0.163538 -0.520132,0.246094 -0.878906,0.246094 -0.591175,0 -0.802989,-0.142205 -0.839844,-0.201172 l -0.02148,-0.0332 -0.02539,-0.0293 C 96.47148,40.306245 96.33208,39.972039 96.263672,39.443359 V 39.328125 27.501953 Z m 1.041015,1.041016 h 1.576172 v 10.785156 0.199219 l 0.0039,0.0332 c 0.0732,0.585628 0.242257,1.031586 0.511719,1.404297 -0.471314,-0.10668 -1.093744,-0.15429 -1.269531,-0.359375 l -0.0078,-0.0078 -0.0059,-0.0078 c -0.372398,-0.403432 -0.639451,-0.92539 -0.808594,-1.580078 z m 2.101563,12.509765 c 0.0073,0.01171 0.02364,0.01209 0.03125,0.02344 0.0081,0.0098 0.0054,0.02938 0.01367,0.03906 z"
           id="path646" />
      </g>
      <g
         id="path599">
        <path
           style="color:#000000;-inkscape-font-specification:'Ecolier_court, Normal';stroke:none;-inkscape-stroke:none"
           d="m 101.75798,35.318737 q 0,-0.05569 0.0557,-0.167072 0.33414,-0.94674 0.33414,-1.058121 0.11138,-0.389834 0.27846,-1.002431 0.44552,-1.503646 0.66828,-2.394696 0.44553,-1.392265 0.77967,-1.83779 0.33415,-0.389834 1.00243,-0.389834 0.83536,0.05569 1.11381,0.334144 0.22277,0.278453 0.33415,0.94674 0.0557,0.222762 0.11138,0.668287 v 11.249502 h 2.61746 V 30.529345 l -0.0557,-0.111381 q -0.33415,-1.058121 -1.11381,-1.726409 -0.77967,-0.668287 -2.95161,-0.668287 -0.89105,0.167072 -1.1695,0.556906 -0.33414,0.389834 -0.89105,1.782099 l -0.0557,0.167072 q -0.11138,0.278453 -0.38983,1.447956 -0.38984,1.726409 -0.66829,2.561768 z m 16.54011,5.903204 q -1.00243,0 -1.28089,-0.556906 -0.27845,-0.501216 -0.27845,-1.336575 v -8.799115 l -0.11138,-0.222762 q -0.38983,-1.002431 -1.22519,-1.670718 -0.89105,-0.612597 -3.11868,-0.612597 -0.0557,0.05569 -0.22276,0.111381 -1.72641,1.058122 -2.61746,2.004862 -0.89105,0.94674 -1.7821,3.285746 l 0.0557,-0.111382 q 1.44796,-2.394696 2.22763,-3.341436 0.72398,-0.891049 2.11624,-1.503646 h 0.27845 v 0 q 0.16708,-0.05569 0.22277,-0.05569 0.83535,0 1.05812,0.278453 0.22276,0.334144 0.33414,1.002431 0.0557,0.501216 0.11138,0.723978 v 8.632043 q 0.11138,1.002431 0.89105,1.83779 0.72398,0.835359 2.61746,0.835359 h 0.27845 0.33415 q 1.00243,-0.278453 1.44795,-0.612596 0.44553,-0.278453 1.05812,-1.113813 0.77967,-1.336574 1.33658,-2.506077 0.50121,-1.113812 0.66829,-2.171933 V 34.53907 q -0.33415,1.447955 -0.77967,2.506077 -0.44553,1.113812 -1.16951,2.506077 -0.77966,1.002431 -1.28088,1.336574 -0.50121,0.334144 -1.1695,0.334144 z"
           id="path650" />
        <path
           style="color:#000000;-inkscape-font-specification:'Ecolier_court, Normal';stroke:none;-inkscape-stroke:none"
           d="m 104.88477,27.501953 -0.0488,0.0098 c -0.65066,0.121998 -1.16383,0.32305 -1.48242,0.759765 -0.32246,0.384459 -0.59212,0.966626 -0.96485,1.898438 l -0.006,0.01367 -0.0508,0.152343 c -0.11202,0.280068 -0.22501,0.73566 -0.41211,1.521485 v 0.002 l -0.002,0.0039 c -0.258,1.142561 -0.47964,1.987731 -0.6543,2.511719 l -0.0254,0.08008 v 0.863281 h 1.04102 c 0,0.136405 -0.0216,0.109623 0,0.06641 l 0.0137,-0.0293 0.0117,-0.03125 c 0.11244,-0.3186 0.19701,-0.567551 0.25586,-0.753907 0.0294,-0.09318 0.0527,-0.170648 0.0703,-0.238281 0.0176,-0.06763 0.0371,-0.08959 0.0371,-0.238281 l -0.0195,0.142578 c 0.0744,-0.260535 0.16701,-0.593645 0.27734,-0.998047 l 0.002,-0.0098 c 0.29239,-0.98717 0.51123,-1.772068 0.66211,-2.373047 l 0.002,-0.0039 c 0.28602,-0.892565 0.55663,-1.472826 0.6914,-1.658203 0.10838,-0.122154 0.25902,-0.196336 0.58203,-0.199218 0.45709,0.03692 0.70126,0.151235 0.73047,0.171875 0.0516,0.07526 0.15143,0.289389 0.21485,0.669921 l 0.004,0.01953 0.006,0.01953 c 0.0262,0.10468 0.0612,0.314241 0.0957,0.583984 V 42.1875 h 3.6582 V 31.462891 c 0.23353,-0.335497 0.60061,-0.952666 0.77148,-1.160157 h 0.002 v -0.002 c 0.40258,-0.495482 1.0287,-0.93429 1.85742,-1.310547 h 0.21875 l 0.0801,-0.02734 c 0.0949,-0.03164 0.19496,-0.0293 0.0586,-0.0293 0.48856,0 0.67501,0.134503 0.63672,0.08203 0.0801,0.130011 0.17785,0.377631 0.24219,0.763672 0.0319,0.283245 0.0647,0.486486 0.10351,0.664062 v 8.634766 l 0.004,0.0293 c 0.0869,0.782105 0.44502,1.504708 1.02344,2.126953 0.63048,0.720403 1.66829,1.009766 3.00195,1.009766 h 0.2793 0.40429 l 0.0684,-0.01953 c 0.69149,-0.19208 1.20982,-0.400079 1.59961,-0.6875 0.39846,-0.253565 0.76528,-0.656663 1.1875,-1.232422 l 0.0156,-0.02148 0.0137,-0.02344 c 0.52589,-0.901531 0.9787,-1.749619 1.35742,-2.544922 l 0.002,-0.0059 0.002,-0.0039 c 0.35057,-0.779051 0.58752,-1.547863 0.70703,-2.304687 l 0.008,-0.04102 v -0.820313 l -1.02734,-0.117187 c -0.21762,0.942984 -0.47179,1.751826 -0.75391,2.421875 l -0.002,0.0039 v 0.0039 c -0.28293,0.707309 -0.66158,1.515642 -1.125,2.410157 -0.48773,0.621581 -0.89862,1.038532 -1.13086,1.193359 -0.2453,0.163536 -0.52209,0.246094 -0.88086,0.246094 -0.5719,0 -0.7425,-0.121721 -0.81641,-0.269531 l -0.004,-0.0098 -0.006,-0.0098 c -0.12602,-0.226833 -0.21289,-0.584911 -0.21289,-1.083984 V 30.40625 l -0.16602,-0.332031 0.0195,0.04297 c -0.29124,-0.748922 -0.76152,-1.388514 -1.38672,-1.888671 l -0.0137,-0.01172 -0.0156,-0.0098 c -0.7609,-0.523116 -1.88127,-0.705078 -3.41407,-0.705078 h -0.21484 l -0.15234,0.152344 c 0.0855,-0.0855 0.0589,-0.03983 -0.0195,-0.01367 l -0.0566,0.01953 -0.0508,0.03125 c -1.14112,0.699395 -2.00573,1.366297 -2.64453,2.029297 -0.251,-0.520675 -0.49068,-1.054233 -0.92187,-1.423828 -0.70111,-0.600944 -1.78968,-0.794922 -3.29102,-0.794922 z m 1.66015,1.376953 c 0.28651,0.08802 0.87051,0.09604 1,0.207031 0.44461,0.381099 0.7598,0.863714 0.95703,1.488282 l 0.0117,0.03906 0.0195,0.03906 v 0.101562 c -0.41213,0.615742 -0.82265,1.24042 -1.21093,2.214844 -0.0215,0.03544 -0.0291,0.04025 -0.0508,0.07617 l -0.0117,0.01758 -0.0645,0.130859 0.004,0.002 c -0.008,0.02069 -0.0174,0.02408 -0.0254,0.04492 l 0.95312,0.417969 0.0352,-0.07422 0.004,-0.0059 0.002,-0.002 c 0.16072,-0.26571 0.21699,-0.312313 0.36523,-0.550781 v 8.121093 H 106.9572 V 30.384766 l -0.004,-0.03125 c -0.0363,-0.290282 -0.0718,-0.506936 -0.11524,-0.689454 -2.8e-4,-0.0017 -0.002,-0.0022 -0.002,-0.0039 -0.0539,-0.322098 -0.1803,-0.540832 -0.29102,-0.78125 z m 7.67969,0.02148 c 0.2312,0.07245 0.73231,0.07043 0.86523,0.160156 0.47916,0.388105 0.82703,0.855153 1.05274,1.435547 l 0.008,0.02148 0.0684,0.134766 v 8.675781 c 0,0.610253 0.10046,1.138564 0.3418,1.578125 0.0453,0.08835 0.14748,0.120115 0.20898,0.193359 -0.6639,-0.100016 -1.17866,-0.274362 -1.41992,-0.552734 l -0.006,-0.0078 -0.006,-0.0059 C 114.88286,40.045675 114.64868,39.548232 114.58594,39 v -8.646484 l -0.0156,-0.0625 c -0.0248,-0.09902 -0.0636,-0.330663 -0.0996,-0.654297 v -0.01367 l -0.004,-0.01367 c -0.0477,-0.286016 -0.15689,-0.482275 -0.24219,-0.708984 z"
           id="path652" />
      </g>
      <g
         id="path601">
        <path
           style="color:#000000;-inkscape-font-specification:'Ecolier_court, Normal';stroke:none;-inkscape-stroke:none"
           d="m 171.31558,35.263046 v -0.723977 q -0.89105,1.169502 -2.45039,2.004861 -1.61502,0.835359 -4.34386,1.280884 l -0.33415,0.445525 q 3.17437,-0.668287 4.7894,-1.336575 1.55933,-0.668287 2.339,-1.670718 z M 142.7463,14.044927 h 0.33415 q -0.11139,-0.556906 -0.11139,-1.336574 0,-2.004862 0.94674,-3.1743644 0.94675,-1.1695027 2.33901,-1.1695027 1.11381,0 2.22762,0.8353591 1.16951,1.169503 1.16951,3.898342 0,2.339005 -0.89105,4.510939 -0.89105,2.171933 -2.33901,2.895911 -1.67072,0.779668 -2.61746,0.779668 -1.00243,0 -2.06055,-0.668287 -0.77967,-0.891049 -1.28088,-2.506077 -0.55691,-1.615027 -0.55691,-3.842651 0,-1.113812 0.16707,-2.394696 0.50122,-2.673149 1.89348,-4.7337013 1.39227,-2.0605522 3.39713,-3.4528173 1.94917,-1.3365744 4.28818,-2.0048616 2.339,-0.6682872 4.7337,-0.6682872 2.17193,0 4.1211,0.5012154 4.78939,1.5593368 7.18409,5.6247507 2.33901,4.0654143 2.72884,9.8015463 0,7.518231 -0.77967,12.419004 -0.83536,4.900773 -3.11867,7.852374 -1.28089,1.615028 -2.72884,2.283315 -1.50365,0.723978 -3.17437,0.723978 -1.72641,0 -5.23491,-1.058122 -1.83779,-0.445524 -2.45039,-0.612596 -3.11867,-0.668287 -5.17923,-1.002431 -2.06055,-0.334144 -3.67558,-0.334144 -1.89348,0 -3.00729,0.501216 -1.1695,0.556906 -1.55933,1.782099 0,0.89105 1.44795,1.392265 1.39227,0.556906 3.5642,0.556906 3.00729,0 5.84751,-0.94674 2.61746,-2.227624 3.95404,-4.678011 1.33657,-2.394695 1.94917,-5.903203 0.66828,-3.341436 0.66828,-8.186519 0,-1.949171 -0.11138,-4.176795 v -1.113812 q -0.0557,-0.668287 -0.0557,-1.169503 0,-2.951601 0.50122,-5.4019878 0.44552,-2.3946959 1.67072,-4.5109387 0.33414,-0.7796685 0.94674,-1.5036463 0.61259,-0.7239778 1.33657,-1.4479556 L 158.84089,2.071448 q -0.94674,0.7796684 -3.0073,3.0629831 -2.00486,2.3946958 -3.00729,5.0678449 -1.05812,2.673149 -1.05812,7.351159 v 12.641767 0.501215 q 0,0.167072 0.0557,0.278453 v 0.222762 q 0,2.561768 -0.77967,4.789392 -0.83536,2.227624 -2.67315,3.842652 -1.1695,0.668287 -2.61746,1.002431 -1.50364,0.334143 -3.00729,0.334143 -1.94917,0 -3.39712,-0.501215 -1.44796,-0.445525 -1.55934,-1.169503 0.44552,-0.89105 1.33657,-1.392265 0.83536,-0.445525 2.33901,-0.445525 1.67072,0 4.23248,0.612597 2.56177,0.668287 6.23735,2.116243 3.5642,1.113812 5.79182,1.113812 2.3947,0 4.12111,-1.225193 1.72641,-1.169503 3.73127,-3.898343 1.83779,-3.285745 2.56177,-7.46254 0.72397,-4.232486 0.72397,-8.854806 0,-0.278453 -0.0557,-1.447955 v -1.336575 q -0.44552,-5.179226 -1.89348,-8.6320431 -1.50364,-3.3971266 -5.01215,-5.9032037 -1.61503,-1.0581214 -3.50851,-1.6150274 -1.89348,-0.50121546 -3.95403,-0.50121546 -2.9516,0 -5.79182,0.94674026 -2.89592,0.9467402 -4.73371,2.3390052 -3.17436,2.3390053 -4.67801,4.9564635 -1.55933,2.6731487 -1.55933,5.4019887 0,1.559337 0.50121,3.118673 0.94674,1.949171 2.56177,3.062983 1.55934,1.169503 3.28575,1.169503 1.44795,0 2.67314,-0.835359 1.16951,-0.779668 2.00487,-2.339005 0.5569,-1.225193 0.89105,-2.673149 0.33414,-1.447956 0.33414,-2.840221 0,-1.782099 -0.55691,-3.0629828 -0.61259,-1.2808839 -1.83779,-1.6707181 -0.61259,-0.1113812 -1.1695,-0.1113812 -2.00486,0 -2.84022,1.3922651 -0.89105,1.447956 -0.89105,3.341436 0,0.222762 0.0557,0.668287 0.0557,0.445525 0.0557,0.556906 z"
           id="path656" />
        <path
           style="color:#000000;-inkscape-font-specification:'Ecolier_court, Normal';stroke:none;-inkscape-stroke:none"
           d="m 154.44141,0.10351562 c -2.02209,0 -4.00952,0.3252181 -5.95313,0.97265628 -1.9688,0.6436456 -3.5968,1.4424024 -4.88086,2.4140625 -7.9e-4,5.838e-4 -10e-4,0.00137 -0.002,0.00195 -0.001,7.794e-4 -0.003,0.00117 -0.004,0.00195 -2.15626,1.5897803 -3.76754,3.2889411 -4.81445,5.1113282 -1.0775,1.8479474 -1.62891,3.7445474 -1.62891,5.6621094 0,1.095324 0.17579,2.189667 0.52539,3.277344 l 0.0117,0.03516 0.0156,0.0332 c 0.66321,1.365428 1.57648,2.460248 2.72656,3.25586 1.11132,0.831411 2.32416,1.269531 3.58984,1.269531 1.06392,0 2.06819,-0.314825 2.96289,-0.923828 0.86439,-0.576866 1.58672,-1.429445 2.17383,-2.525391 l 0.008,-0.01367 0.008,-0.01563 c 0.387,-0.851412 0.69405,-1.77579 0.92383,-2.771484 0.23097,-1.000919 0.34765,-1.987216 0.34765,-2.957031 0,-1.242284 -0.19314,-2.336616 -0.59961,-3.2714849 l -0.004,-0.00781 -0.004,-0.00781 c -0.4578,-0.9572266 -1.20052,-1.6411293 -2.15039,-1.9433594 l -0.0312,-0.00977 -0.0332,-0.00586 c -0.43571,-0.07922 -0.8577,-0.1191407 -1.26368,-0.1191407 -1.45705,10e-8 -2.63373,0.5588294 -3.28515,1.6445313 -0.64495,1.0503547 -0.96485,2.2676497 -0.96485,3.6093757 0,0.19189 0.0201,0.424809 0.0586,0.732421 0.0365,0.291719 0.0527,0.504699 0.0527,0.492188 l 0.3086,-0.308594 c 0.0166,0.128956 0.0114,0.291138 0.0352,0.410156 l 0.17578,-0.214843 v 0.632812 h 0.52149 0.44726 l -0.12304,-0.621094 c -0.0651,-0.325462 -0.10157,-0.739384 -0.10157,-1.234375 0,-1.254643 0.29044,-2.181042 0.83008,-2.8476561 0.55266,-0.6826867 1.15116,-0.9765625 1.9336,-0.9765625 0.60115,0 1.21912,0.2313184 1.88086,0.71875 0.62163,0.6414396 0.99609,1.7720266 0.99609,3.4941406 0,1.49324 -0.28243,2.927201 -0.85156,4.314453 -0.56312,1.372601 -1.27057,2.213552 -2.08594,2.623047 -1.0746,0.500457 -1.90196,0.728516 -2.38867,0.728516 -0.52899,0 -1.09634,-0.19222 -1.70703,-0.5625 -0.43624,-0.51737 -0.82719,-1.246752 -1.13672,-2.244141 l -0.004,-0.0078 -0.002,-0.0078 c -0.34723,-1.006961 -0.5293,-2.232122 -0.5293,-3.673828 0,-0.712927 0.0563,-1.486436 0.16406,-2.316406 0.32341,-1.712228 0.92591,-3.2131553 1.8086,-4.5195316 0.89374,-1.3227284 1.97759,-2.4266057 3.26172,-3.3183594 1.25215,-0.858281 2.62769,-1.5010501 4.13476,-1.9316406 1.51422,-0.4326339 3.0418,-0.6484375 4.58985,-0.6484375 1.34176,0 2.60261,0.169869 3.80468,0.4628906 -0.67011,0.5894073 -1.50613,1.4193821 -2.74218,2.7890625 l -0.006,0.00781 -0.008,0.00781 c -1.37035,1.6368162 -2.40335,3.3776798 -3.09375,5.21875 -0.74141,1.877792 -1.09179,4.379916 -1.09179,7.533203 v 12.642578 0.501954 c 0,0.169224 0.0257,0.342395 0.10937,0.509765 l -0.0547,-0.232422 v 0.222657 c 0,1.653675 -0.25159,3.187915 -0.75,4.613281 -4.1e-4,0.0012 4.2e-4,0.0027 0,0.0039 -0.26086,0.693254 -0.59993,1.336085 -1.01367,1.933594 -1.33912,-0.272219 -2.71648,-0.554848 -3.70312,-0.714844 -1.39491,-0.226202 -2.64523,-0.341797 -3.75782,-0.341797 -1.30824,0 -2.3775,0.167437 -3.2207,0.546875 l -0.006,0.002 -0.004,0.0039 c -0.89317,0.425319 -1.53346,1.155359 -1.83204,2.09375 l -0.0254,0.07617 v 0.08203 c 0,0.437984 0.20018,0.859021 0.52149,1.167968 0.3188,0.306546 0.74553,0.527103 1.26758,0.708985 1.01285,0.402884 2.25712,0.591797 3.74414,0.591797 2.05948,0 4.06595,-0.324069 6.01172,-0.972657 l 0.0957,-0.0332 0.0781,-0.06445 c 0.29897,-0.254437 0.51578,-0.525703 0.79102,-0.785156 0.78602,0.279852 1.35875,0.412928 2.24414,0.761719 l 0.0176,0.0059 0.0176,0.0059 c 2.40559,0.751749 4.37543,1.138672 5.94726,1.138672 1.68362,0 3.17707,-0.439479 4.41992,-1.320312 0.56283,-0.381918 1.1807,-1.246994 1.76563,-1.841797 l 0.38281,-0.08008 c 2.13306,-0.449064 3.74949,-0.897081 4.88086,-1.365235 h 0.002 l 0.004,-0.002 c 1.09729,-0.47027 1.95632,-1.0733 2.54492,-1.830078 l 0.10938,-0.140625 v -0.177734 -2.267578 l -0.9336,1.226562 c -0.54075,0.709735 -1.29458,1.333175 -2.27929,1.861328 -0.68288,0.352805 -1.8025,0.582493 -2.84766,0.833985 0.0779,-0.103358 0.14423,-0.125677 0.22266,-0.232422 l 0.0195,-0.02734 0.0156,-0.02734 c 1.25685,-2.247087 2.12971,-4.792031 2.6211,-7.626953 v -0.002 c 0.48795,-2.852693 0.73047,-5.834641 0.73047,-8.943359 0,-0.216547 -0.0187,-0.689599 -0.0547,-1.447266 v -0.02539 -1.333984 l -0.002,-0.02148 c -0.30029,-3.490946 -0.9378,-6.419151 -1.93164,-8.7890629 l -0.002,-0.00391 -0.002,-0.00586 c -1.0439,-2.3584438 -2.78464,-4.4003037 -5.18555,-6.1152343 l -0.01,-0.00586 -0.008,-0.00586 C 161.06979,1.5711132 159.85247,1.0101463 158.54297,0.625 l -0.008,-0.001953 -0.006,-0.001953 c -1.30714,-0.3460953 -2.67166,-0.51757838 -4.08756,-0.51757838 z m 5.23046,2.59765628 c 2.35877,1.0552793 4.28856,2.5271231 5.57032,4.703125 1.50843,2.6239221 2.39706,5.8033771 2.65429,9.5546871 -7.4e-4,4.984514 -0.25892,9.096579 -0.77148,12.31836 -0.54657,3.201818 -1.56032,5.733158 -3.01367,7.613281 -0.81569,1.027859 -1.66437,1.730005 -2.53711,2.132812 l -0.004,0.002 -0.004,0.002 c -0.93455,0.449963 -1.91059,0.671875 -2.94922,0.671875 -1.0446,0 -2.76758,-0.33851 -5.08399,-1.03711 l -0.0137,-0.0039 -0.0137,-0.002 c -1.07629,-0.260919 -1.70624,-0.420055 -2.14258,-0.535156 0.53123,-0.671363 1.03441,-1.349551 1.41797,-2.052735 0.92495,-1.65891 1.58828,-3.679457 2.00391,-6.05664 0.45414,-2.273838 0.67773,-5.030314 0.67773,-8.28125 0,-1.301456 -0.0376,-2.695204 -0.11133,-4.177735 v -0.02539 -1.109375 l -0.002,-0.02148 c -0.0362,-0.43479 -0.0527,-0.81209 -0.0527,-1.126953 0,-1.938269 0.16432,-3.703484 0.49024,-5.2968747 V 9.96875 l 0.002,-0.00586 c 0.28637,-1.5392175 0.82153,-2.984875 1.60938,-4.3457031 l 0.0156,-0.025391 0.0117,-0.029297 c 0.20037,-0.4675364 0.48621,-0.9251064 0.86524,-1.3730469 0.39834,-0.4707757 0.83537,-0.9428021 1.30859,-1.4160156 z m -3.17578,2.3945312 c -0.006,0.00978 -0.006,0.021466 -0.0117,0.03125 -0.004,0.00882 -0.0118,0.016559 -0.0156,0.025391 z m -0.0625,0.1699219 c -0.79562,1.4135852 -1.36933,2.9118228 -1.66601,4.5039063 -2.7e-4,0.00144 -0.002,0.00247 -0.002,0.00391 -0.34113,1.6713687 -0.50976,3.5024767 -0.50976,5.4960937 0,0.341473 0.0192,0.73452 0.0547,1.171875 v 1.125 0.01367 c 0.0739,1.477519 0.11133,2.860859 0.11132,4.150391 0,3.206121 -0.22217,5.903802 -0.6582,8.083984 l -0.002,0.0059 v 0.0078 c -0.40082,2.295585 -1.03581,4.20673 -1.89063,5.738281 l -0.002,0.002 -0.002,0.002 c -0.0827,0.151589 -0.21805,0.2967 -0.3086,0.447266 0.51003,-1.50624 0.78516,-3.109602 0.78516,-4.820312 v -0.345704 l -0.0547,-0.109375 c 0.009,0.01886 0,0.0086 0,-0.04492 V 30.195312 17.552734 c 0,-3.079426 0.35432,-5.472716 1.02149,-7.158203 l 0.002,-0.0059 0.002,-0.0039 c 0.64568,-1.7218124 1.61473,-3.3570635 2.91602,-4.9121098 9.9e-4,-0.00119 9.6e-4,-0.00272 0.002,-0.00391 0.0925,-0.1024368 0.11205,-0.1052873 0.20117,-0.203125 z m -13.70312,0.3671875 c -0.37538,0.4303487 -0.86942,0.7325263 -1.19531,1.2148437 -0.97041,1.4362074 -1.62689,3.0855998 -1.97266,4.9296878 l -0.004,0.01367 -0.002,0.01563 c -0.11388,0.873108 -0.17187,1.692372 -0.17187,2.460937 0,1.523979 0.19102,2.855836 0.58398,4 0.15958,0.513485 0.42722,0.812871 0.63281,1.232422 -0.74822,-0.63364 -1.44737,-1.326453 -1.93359,-2.318359 -0.309,-0.976138 -0.46875,-1.945239 -0.46875,-2.914063 0,-1.720082 0.48757,-3.42316 1.48828,-5.1386717 v -0.00195 l 0.002,-0.00195 c 0.69081,-1.2025044 1.77144,-2.3598356 3.04102,-3.4921875 z m -1.26563,32.5449215 c 1.0502,0 2.42839,0.197165 4.11133,0.59961 0.59132,0.15444 1.48944,0.519032 2.17578,0.738281 -0.6479,0.331725 -1.32854,0.62705 -2.11523,0.808594 -0.96526,0.214218 -1.92803,0.322265 -2.89063,0.322265 -1.25483,0 -2.32948,-0.162129 -3.22656,-0.472656 l -0.008,-0.0039 -0.01,-0.002 c -0.44657,-0.137407 -0.76815,-0.293404 -0.95508,-0.433594 -0.10094,-0.07571 -0.0957,-0.117448 -0.13085,-0.171875 0.24281,-0.401033 0.52536,-0.753716 0.96093,-1 0.44269,-0.23488 1.13944,-0.384766 2.08789,-0.384766 z m 6.59375,0.345703 c 0.22125,0.04241 0.44041,0.08462 0.67383,0.13086 -0.0224,0.02456 -0.0437,0.04984 -0.0664,0.07422 -0.19884,-0.06616 -0.41532,-0.143721 -0.60743,-0.20508 z m 2.54102,0.492188 c 0.089,0.01893 0.13429,0.02361 0.22461,0.04297 0.42195,0.114641 1.21875,0.31308 2.4082,0.601562 2.3616,0.712229 4.12749,1.080078 5.38477,1.080078 0.7246,0 1.38849,-0.280534 2.07226,-0.472656 -0.87312,0.427648 -1.82616,0.712891 -2.96289,0.712891 -1.39683,0 -3.28767,-0.356143 -5.63086,-1.087891 -0.002,-7.81e-4 -0.003,-0.0012 -0.006,-0.002 -0.69031,-0.271568 -1.135,-0.368792 -1.76757,-0.599609 0.0878,-0.09284 0.19247,-0.181928 0.27734,-0.275391 z m -11.41992,2.140625 c 0.001,3.83e-4 0.003,-3.83e-4 0.004,0 0.005,0.0015 0.007,0.0044 0.0117,0.0059 z"
           id="path658" />
      </g>
      <g
         id="path603">
        <path
           style="color:#000000;-inkscape-font-specification:'Ecolier_court, Normal';stroke:none;-inkscape-stroke:none"
           d="m 172.76353,22.120064 q -0.66829,0 -1.05812,0.334144 -0.44553,0.389834 -0.44553,0.94674 0,0.556906 0.44553,0.946741 0.38983,0.445524 1.05812,0.445524 0.55691,0 0.94674,-0.445524 0.38983,-0.389835 0.38983,-0.946741 0,-0.556906 -0.38983,-0.94674 -0.38983,-0.334144 -0.94674,-0.334144 z m 2.89591,19.101877 q -1.00243,0 -1.28088,-0.445525 -0.33415,-0.389834 -0.44553,-1.280884 V 39.32846 28.023268 h -2.61746 v 11.026739 0.05569 q 0.27846,1.113812 0.94674,1.83779 0.66829,0.779668 2.50608,0.779668 h 0.27845 0.33415 q 1.1695,-0.334143 1.61502,-0.612596 0.44553,-0.278453 0.94675,-1.113813 0.50121,-0.891049 1.1695,-2.506077 0.66828,-1.615027 0.83536,-2.171933 v -0.779668 q -0.27846,1.058121 -0.89105,2.561767 -0.6126,1.559337 -1.16951,2.506077 -0.5569,0.946741 -1.05812,1.280884 -0.50121,0.334144 -1.1695,0.334144 z"
           id="path662" />
        <path
           style="color:#000000;-inkscape-font-specification:'Ecolier_court, Normal';stroke:none;-inkscape-stroke:none"
           d="m 172.76367,21.599609 c -0.53227,0 -1.02501,0.140577 -1.39648,0.458985 l -0.002,0.002 -0.002,0.002 c -0.38946,0.340774 -0.62305,0.827819 -0.62305,1.337891 0,0.496793 0.23605,0.96542 0.60743,1.304687 0.35652,0.390081 0.86759,0.609375 1.41601,0.609375 0.50343,0 0.98023,-0.234869 1.32031,-0.615234 0.3399,-0.346375 0.53711,-0.811888 0.53711,-1.298828 0,-0.492719 -0.19545,-0.966933 -0.54297,-1.314454 l -0.0137,-0.01367 -0.0156,-0.01367 c -0.35288,-0.302468 -0.80979,-0.458985 -1.28516,-0.458985 z m 0,1.041016 c 0.25767,0 0.42439,0.06849 0.58594,0.201172 0.15954,0.165565 0.23047,0.317176 0.23047,0.558594 0,0.249821 -0.066,0.407819 -0.23828,0.580078 l -0.0117,0.01172 -0.0117,0.01367 c -0.179,0.204574 -0.32221,0.267579 -0.55469,0.267578 -0.32986,0 -0.50319,-0.08149 -0.66601,-0.267578 l -0.0234,-0.02734 -0.0254,-0.02344 c -0.20458,-0.179005 -0.26758,-0.322219 -0.26758,-0.554687 0,-0.230821 0.0645,-0.37354 0.26562,-0.550782 0.14826,-0.126571 0.35892,-0.208984 0.7168,-0.208984 z m -1.96875,4.861328 v 11.548828 0.119141 l 0.0156,0.0625 c 0.20182,0.807271 0.55582,1.500303 1.0625,2.052734 0.59947,0.694837 1.59899,0.958985 2.89453,0.958985 h 0.27929 0.40625 l 0.0703,-0.02148 c 0.7996,-0.228457 1.3568,-0.425392 1.74804,-0.669922 0.42101,-0.263124 0.76117,-0.695691 1.11719,-1.289062 l 0.004,-0.0059 0.004,-0.0059 c 0.35156,-0.624992 0.7471,-1.474586 1.19727,-2.5625 0.44774,-1.082054 0.72508,-1.79913 0.85156,-2.220703 l 0.0234,-0.07422 v -0.855469 l -1.02539,-0.132812 c -0.17718,0.673249 -0.46645,1.509605 -0.86914,2.498047 v 0.0039 l -0.002,0.002 c -0.40188,1.022962 -0.78453,1.838187 -1.13477,2.433594 -0.35023,0.595406 -0.67709,0.965066 -0.89648,1.111328 -0.24531,0.163536 -0.52209,0.246094 -0.88086,0.246094 -0.59118,0 -0.80299,-0.142207 -0.83985,-0.201172 l -0.0215,-0.0332 -0.0254,-0.0293 c -0.11251,-0.131255 -0.25191,-0.465463 -0.32032,-0.994141 V 39.328125 27.501953 Z m 1.04102,1.041016 h 1.57617 v 10.785156 0.199219 l 0.004,0.0332 c 0.0732,0.585629 0.24225,1.031585 0.51171,1.404297 -0.47131,-0.10668 -1.09374,-0.15429 -1.26953,-0.359375 l -0.008,-0.0078 -0.006,-0.0078 c -0.37239,-0.403432 -0.63945,-0.925388 -0.80859,-1.580078 z m 2.10156,12.509765 c 0.007,0.01171 0.0236,0.01209 0.0312,0.02344 0.008,0.0098 0.005,0.02938 0.0137,0.03906 z"
           id="path664" />
      </g>
      <g
         id="path605">
        <path
           style="color:#000000;-inkscape-font-specification:'Ecolier_court, Normal';stroke:none;-inkscape-stroke:none"
           d="m 179.94765,35.318737 v -0.779668 q 0.27846,-1.002431 0.83536,-3.786961 0.22277,-1.225194 0.50122,-2.561768 l 0.27845,0.05569 q -0.16707,0.779668 -0.44552,2.004861 -0.50122,2.506077 -0.66829,3.452818 -0.27845,1.169502 -0.50122,1.615027 z m 0.55691,-7.239778 q 0.33414,0.278453 0.89105,0.334143 0.66829,0.05569 1.94917,0.111382 1.1695,0.05569 1.89348,0.111381 v 10.302761 q 0.16707,1.113812 1.44796,1.949171 1.22519,0.89105 2.67315,0.89105 1.61502,0 2.67314,-1.113812 2.06056,-2.895912 2.84022,-5.346298 v -0.779668 q -0.33414,1.169502 -0.5569,1.782099 -0.22276,0.501215 -0.6126,1.113812 -0.61259,1.392265 -1.7821,2.895911 -1.05812,1.169503 -2.22762,1.169503 -1.28088,0 -1.67072,-1.058122 V 30.08382 q 0,-1.447955 -0.77967,-1.559336 -0.61259,-0.167072 -2.78453,-0.167072 -1.44795,-0.05569 -2.22762,-0.111381 -0.66829,-0.05569 -0.66829,-0.278453 0,-0.05569 0.0557,-0.222763 0.11138,-0.334143 0.11138,-0.501215 0,-0.723978 -0.77967,-0.835359 -0.77966,0 -0.77966,0.835359 0,0.445525 0.33414,0.835359 z"
           id="path668" />
        <path
           style="color:#000000;-inkscape-font-specification:'Ecolier_court, Normal';stroke:none;-inkscape-stroke:none"
           d="m 180.94922,25.888672 c -0.35283,0 -0.7168,0.107283 -0.96485,0.373047 -0.24804,0.265763 -0.33398,0.623003 -0.33398,0.982422 0,0.427139 0.17246,0.839549 0.45898,1.173828 l 0.0293,0.0332 0.0332,0.02734 c 0.13294,0.110781 0.32824,0.119809 0.48829,0.189453 -0.13765,0.679007 -0.27319,1.355097 -0.38868,1.990234 -0.36919,1.845427 -0.65021,3.108765 -0.82617,3.742188 l -0.0176,0.06836 v 0.849609 l 0.98633,0.232422 c 0.19119,-0.382372 0.35159,-0.930957 0.54102,-1.726562 l 0.004,-0.01563 0.002,-0.01367 c 0.10912,-0.618395 0.33239,-1.769104 0.66406,-3.427735 l 0.002,-0.01367 c 0.12805,-0.563532 0.21775,-0.965991 0.31055,-1.388672 0.40374,0.02646 0.78137,0.05391 1.38281,0.08008 0.57717,0.02748 0.98567,0.05475 1.39649,0.08203 v 9.849609 l 0.006,0.03906 c 0.13681,0.912108 0.74189,1.691066 1.66796,2.298828 0.89332,0.646885 1.90048,0.984375 2.96875,0.984375 1.19634,0 2.2543,-0.436981 3.05079,-1.275391 l 0.0254,-0.02734 0.0215,-0.0293 c 1.39593,-1.961844 2.37013,-3.786851 2.91211,-5.490235 l 0.0234,-0.07617 v -0.861329 l -1.01953,-0.142578 c -0.2185,0.764754 -0.40092,1.339497 -0.54102,1.726563 -0.13441,0.300327 -0.32216,0.646331 -0.56836,1.033203 l -0.0215,0.0332 -0.0156,0.03516 c -0.38383,0.872349 -0.95359,1.796759 -1.70312,2.763672 -0.63681,0.699283 -1.2277,0.992188 -1.83008,0.992188 -0.68308,0 -0.95556,-0.190021 -1.15039,-0.675782 V 30.083984 c 0,-0.529362 -0.0624,-0.972488 -0.25,-1.347656 -0.18542,-0.370833 -0.55447,-0.654658 -0.96485,-0.71875 -0.55732,-0.14451 -1.43179,-0.179253 -2.8496,-0.179687 l -0.0195,-0.002 c -0.94725,-0.03658 -1.68096,-0.07342 -2.18554,-0.109375 h -0.006 c -0.0633,-0.0055 -0.0658,-0.01176 -0.11328,-0.01953 0.044,-0.154069 0.0957,-0.305136 0.0957,-0.46289 0,-0.334749 -0.10169,-0.67689 -0.33398,-0.925782 -0.2323,-0.248891 -0.55454,-0.37749 -0.89258,-0.425781 l -0.0371,-0.0039 z m -0.0352,1.048828 c 0.13237,0.02715 0.21633,0.06423 0.24024,0.08984 0.0276,0.02956 0.0547,0.06889 0.0547,0.216797 0,-0.0043 -0.018,0.137865 -0.084,0.335937 -0.005,0.01487 -0.005,0.03181 -0.01,0.04492 l -0.23437,-0.04687 -0.0156,0.07813 c -0.10283,-0.144042 -0.17382,-0.273433 -0.17382,-0.412109 0,-0.197487 0.0428,-0.258796 0.0547,-0.271485 0.01,-0.01049 0.0674,-0.02754 0.16797,-0.03516 z m 4.84375,2.013672 c 0.46417,0.02859 1.21641,0.04038 1.34766,0.07617 l 0.0312,0.0078 0.0332,0.0039 c 0.10359,0.0148 0.12106,0.01945 0.19336,0.164063 0.0723,0.14461 0.13867,0.44492 0.13867,0.880859 v 10.451172 l 0.0332,0.08789 c 0.005,0.01485 0.0216,0.02052 0.0273,0.03516 -0.18243,-0.09698 -0.39245,-0.06205 -0.57031,-0.191406 l -0.01,-0.0078 -0.0117,-0.0078 c -0.77122,-0.502969 -1.12601,-1.017896 -1.21289,-1.583985 z"
           id="path670" />
      </g>
      <g
         id="path607">
        <path
           style="color:#000000;-inkscape-font-specification:'Ecolier_court, Normal';stroke:none;-inkscape-stroke:none"
           d="m 205.50962,42.001609 q 0.38984,-0.445525 0.94674,-1.336574 0.50122,-0.835359 0.83536,-1.447956 l 0.33415,-0.723978 q 1.50364,-2.951602 1.83779,-3.954032 v 0.723977 q -0.16708,0.389835 -0.94674,2.116243 -0.66829,1.280884 -1.2252,2.283315 l -0.44552,0.779668 -0.0557,0.167072 q -0.16708,0.334144 -0.50122,0.94674 l -0.0557,0.05569 -0.55691,0.89105 z m -2.50607,-5.012154 0.11138,1.058121 q -0.72398,1.559337 -1.89348,3.007293 -1.00243,0.723978 -2.06056,0.723978 -0.94674,0 -1.89348,-0.612597 -1.1695,-1.058121 -1.67071,-2.283315 -0.50122,-1.169502 -0.66829,-2.450386 0,-0.389834 -0.0557,-0.779668 0.0557,-1.336575 0.38983,-2.561768 0.33415,-1.336575 0.94674,-2.673149 0.94674,-1.447956 1.83779,-1.949171 0.89105,-0.501215 1.72641,-0.501215 1.11381,0 1.72641,0.501215 0.6126,0.556906 1.1695,1.392265 0.22276,0.445525 0.33415,0.501215 l 0.0557,0.779669 q -0.66829,-1.559337 -1.44796,-2.227624 -0.83536,-0.612597 -1.55934,-0.612597 -0.50121,0 -0.83536,0.222763 -0.33414,0.222762 -0.50121,0.612596 -0.22276,0.389834 -0.77967,1.670718 -0.33414,1.447956 -0.38983,2.116243 -0.11138,0.779669 -0.16708,2.339005 0,0.445525 0.0557,1.058122 0.0557,1.559337 0.22276,2.506077 0.16707,0.835359 0.83536,1.782099 0.66828,0.668287 1.33657,0.668287 0.6126,0 1.1695,-0.501215 0.55691,-0.445525 1.00243,-1.169503 0.44553,-0.668287 0.72398,-1.392265 0.22276,-0.723978 0.27846,-1.225193 z m 0.61259,6.125966 v -0.334143 q -3.23005,5.903203 -4.56663,10.414142 -1.39226,4.566629 -1.39226,8.019447 0,1.837789 0.33414,3.230054 0.27845,1.447956 0.72398,2.227625 0.66829,1.058121 1.55934,1.559336 0.83536,0.501216 1.7264,0.501216 1.33658,0 2.33901,-0.89105 1.05812,-0.835359 1.33657,-2.116243 V 27.967578 h -2.67314 v 37.869609 q 0,1.336574 -0.38984,2.004861 -0.38983,0.612597 -1.05812,0.612597 -0.66829,0 -1.33657,-0.556906 -0.83536,-0.612597 -1.44796,-1.559337 -0.83536,-2.227624 -0.83536,-5.067845 0,-7.351159 5.68044,-18.155136 z"
           id="path674" />
        <path
           style="color:#000000;-inkscape-font-specification:'Ecolier_court, Normal';stroke:none;-inkscape-stroke:none"
           d="m 199.77344,27.447266 c -0.66101,0 -1.32781,0.200141 -1.98242,0.568359 -0.71205,0.400525 -1.36055,1.112308 -2.01758,2.117187 l -0.0215,0.0332 -0.0156,0.03516 c -0.42058,0.917625 -0.74753,1.838251 -0.97852,2.761719 -1.4e-4,5.8e-4 1.5e-4,0.0014 0,0.002 -0.23188,0.853189 -0.36578,1.741726 -0.40429,2.666015 l -0.002,0.04883 0.006,0.04687 c 0.0337,0.23584 0.0508,0.469979 0.0508,0.705079 v 0.03516 l 0.004,0.0332 c 0.1172,0.898534 0.35301,1.761509 0.70508,2.583984 0.36813,0.898028 0.97559,1.722153 1.80078,2.46875 l 0.0312,0.02734 0.0352,0.02344 c 0.6976,0.451386 1.43236,0.695312 2.17579,0.695312 0.82413,0 1.62647,-0.288719 2.36523,-0.822266 l 0.0566,-0.04102 0.0449,-0.05273 c 0.35084,-0.434374 0.56178,-0.908621 0.85547,-1.359375 v 3.873047 c -1.76684,3.377314 -3.13623,6.465891 -3.93164,9.150391 -0.93805,3.07781 -1.41406,5.797138 -1.41406,8.167969 0,1.25014 0.11331,2.358975 0.3457,3.333984 0.19189,0.995362 0.43938,1.784551 0.78125,2.382813 l 0.006,0.0098 0.006,0.0098 c 0.47986,0.759779 1.05928,1.344814 1.73828,1.728515 0.62534,0.373983 1.29872,0.574219 1.98828,0.574219 1.00131,0 1.91803,-0.352288 2.66992,-1.015625 0.78264,-0.622167 1.30506,-1.442688 1.51368,-2.402344 l 0.0117,-0.05469 V 42.652344 l 0.44531,-0.714844 0.0684,-0.06641 0.0352,-0.06641 c 0.22435,-0.411305 0.39321,-0.729789 0.50977,-0.96289 l 0.0176,-0.0332 0.0508,-0.152344 0.42187,-0.738281 v -0.002 c 0.37406,-0.673295 0.78523,-1.439754 1.23243,-2.296875 l 0.006,-0.01172 0.008,-0.01367 c 0.52008,-1.15162 0.83194,-1.851378 0.94922,-2.125 l 0.043,-0.09961 V 34.539062 L 208.9707,34.375 c -0.19716,0.591479 -0.8099,1.920467 -1.80859,3.880859 l -0.004,0.0098 -0.33398,0.720703 -0.006,0.01172 c -0.16582,0.30317 -0.39085,0.684186 -0.62109,1.074219 v -12.625 h -3.71485 v 1.388671 c -0.2106,-0.251384 -0.40735,-0.54699 -0.63281,-0.751953 l -0.01,-0.0098 -0.01,-0.0078 c -0.52806,-0.432043 -1.23603,-0.61914 -2.05664,-0.61914 z m 3.75,1.041015 h 1.63281 v 13.115235 c -0.0101,0.01187 -0.0292,0.04345 -0.0391,0.05469 l -0.19532,0.224609 0.0937,0.283204 0.14063,0.421875 v 23.044921 c -0.16398,0.732771 -0.52348,1.315104 -1.13867,1.800782 l -0.0117,0.0098 -0.0117,0.0098 c -0.25347,0.225304 -0.58649,0.206461 -0.86719,0.330078 0.23873,-0.537013 0.39649,-1.136731 0.39649,-1.945312 V 44.648437 c 0.23022,-0.458913 0.30615,-0.822021 0.55273,-1.291015 l 0.0606,-0.113281 V 43.115234 42.78125 L 203.52344,42.625 v -4.255859 c 0.0167,-0.03523 0.0481,-0.06624 0.0644,-0.101563 l 0.0606,-0.130859 -0.125,-1.183594 v -5.833984 l 0.0547,-0.01367 -0.0547,-0.773438 z m -3.47071,0.333985 c 0.33107,0 0.74276,0.149287 1.23243,0.503906 0.38887,0.337885 0.80186,0.999133 1.19726,1.86914 v 5.753907 c -0.0322,0.278263 -0.11335,0.647828 -0.24805,1.089843 -0.17088,0.441616 -0.39184,0.868047 -0.66601,1.279297 l -0.006,0.0078 -0.004,0.0078 c -0.27125,0.440795 -0.56801,0.781759 -0.88476,1.035157 l -0.0117,0.0098 -0.0117,0.0098 c -0.30073,0.270658 -0.55387,0.36914 -0.82031,0.36914 -0.26272,0 -0.56924,-0.143578 -0.93555,-0.498046 -0.39188,-0.566439 -0.63456,-1.084891 -0.72461,-1.533204 -1.4e-4,-6.87e-4 -0.002,-0.0013 -0.002,-0.002 -0.10379,-0.592036 -0.17646,-1.402083 -0.21289,-2.421875 v -0.01367 l -0.002,-0.01563 c -0.0355,-0.390173 -0.0541,-0.719484 -0.0547,-0.992187 v -0.0078 c 0.0368,-1.025005 0.0932,-1.793324 0.16211,-2.27539 l 0.002,-0.01563 0.002,-0.01563 c 0.032,-0.383539 0.15828,-1.076188 0.3711,-2.003906 0.35049,-0.80309 0.6169,-1.366193 0.73242,-1.56836 l 0.0137,-0.02539 0.0117,-0.02734 c 0.076,-0.177404 0.17302,-0.291782 0.3125,-0.384766 0.12283,-0.08188 0.28985,-0.134765 0.54687,-0.134765 z m -1.78906,0.05664 c -0.005,0.0081 -0.0167,0.03644 -0.0215,0.04492 -10e-4,0.0031 -0.005,0.0047 -0.006,0.0078 z m -0.0801,0.169922 c -0.17402,0.323538 -0.38787,0.776288 -0.72461,1.550781 l -0.0195,0.04492 -0.0117,0.04687 c -0.22368,0.96933 -0.35573,1.673997 -0.39843,2.173828 -0.0786,0.555245 -0.13271,1.336944 -0.16993,2.378907 l -0.002,0.0098 v 0.0098 c 0,0.310255 0.0205,0.670303 0.0566,1.076172 1.7e-4,0.0048 0.002,0.0069 0.002,0.01172 5.9e-4,0.0066 -6.1e-4,0.01092 0,0.01758 0.0381,1.037906 0.1117,1.886852 0.22851,2.548828 l 0.002,0.0059 v 0.0059 c 0.12926,0.646267 0.44414,1.298227 0.91407,1.966797 -0.1598,-0.07093 -0.30723,-0.0516 -0.47266,-0.15625 -0.71011,-0.651615 -1.21528,-1.334829 -1.50977,-2.054687 l -0.002,-0.0039 -0.002,-0.0039 c -0.31529,-0.735674 -0.52353,-1.504627 -0.62891,-2.3125 -0.003,-0.23507 -0.0205,-0.46855 -0.0508,-0.703125 0.0363,-0.849915 0.16007,-1.659802 0.37109,-2.433593 v -0.0059 l 0.002,-0.0059 c 0.21064,-0.842571 0.51287,-1.68696 0.89844,-2.535156 0.55375,-0.840208 1.06877,-1.345634 1.51757,-1.632813 z m 3.16407,12.115234 -0.0234,0.01953 c 0.005,-0.0041 0.009,-0.01149 0.0137,-0.01563 0.003,-0.0025 0.007,-0.0014 0.01,-0.0039 z m 1.13476,5.914063 v 18.759766 c 0,0.833894 -0.1348,1.411695 -0.3164,1.728515 -0.18431,0.286009 -0.3283,0.367188 -0.61133,0.367188 -0.30095,0 -0.62199,-0.118904 -1.00196,-0.435547 l -0.0137,-0.0098 -0.0117,-0.0098 c -0.48767,-0.35763 -0.90946,-0.821344 -1.27929,-1.38086 -0.51882,-1.404929 -0.79102,-3.005832 -0.79102,-4.826172 0,-3.866742 1.55472,-8.746156 4.02539,-14.193359 z m -2.5957,21.21875 c 0.002,0.0021 0.005,0.0019 0.008,0.0039 0.007,0.0048 0.011,0.01278 0.0176,0.01758 z"
           id="path676" />
      </g>
      <g
         id="path609">
        <path
           style="color:#000000;-inkscape-font-specification:'Ecolier_court, Normal';stroke:none;-inkscape-stroke:none"
           d="m 219.32084,35.708571 q 0,-1.447955 -0.33415,-2.728839 -0.33414,-1.280884 -0.83536,-2.450387 -0.83536,-1.559337 -1.83779,-2.060552 -1.05812,-0.445525 -1.89348,-0.445525 -0.89105,0 -1.7821,0.445525 -0.94674,0.445525 -1.83779,2.004862 -1.28088,2.227624 -1.33657,5.234916 0,0.334144 0.0557,0.723978 0.11138,1.225193 0.55691,2.339005 0.44552,1.169503 1.28088,1.893481 l 0.0557,0.05569 q 0.72398,0.389835 1.00243,0.501216 0.27845,0.167072 0.94674,0.389834 0.66829,0.111381 1.28089,0.111381 1.05812,0 2.39469,-0.723978 1.05812,-1.169502 1.61503,-2.450386 0.50121,-1.225193 0.66829,-2.840221 z m -5.84752,5.179226 q -0.89105,-1.113812 -1.1695,-2.283315 -0.27845,-1.113812 -0.38983,-3.341436 v -0.334143 q 0.11138,-1.503646 0.22276,-2.171934 0.0557,-0.668287 0.33414,-1.83779 0.50122,-1.280883 0.72398,-1.670718 0.22276,-0.389834 0.6126,-0.612596 0.5569,-0.334144 1.44795,-0.334144 0.50122,0 1.22519,0.501216 0.72398,0.556906 1.44796,1.782099 0.55691,0.94674 0.83536,2.283315 0.27845,1.392265 0.27845,2.84022 -0.16707,3.062983 -2.339,5.067845 -1.00243,0.668287 -1.83779,0.668287 -0.72398,0 -1.39227,-0.556906 z m 10.41414,-5.847513 V 34.65045 q -1.50364,0.94674 -2.78453,0.94674 -0.94674,0 -1.33657,-0.556906 -0.27845,-1.447956 -0.50122,-2.283315 -0.22276,-0.779668 -0.5569,-1.447955 -0.11138,-0.612597 -0.89105,-0.612597 -0.44553,0 -0.77967,0.445525 -0.33414,0.445525 -0.33414,1.447956 0.22276,1.336574 1.50364,2.283314 1.2252,0.94674 2.89591,0.94674 1.44796,0 2.78453,-0.779668 z"
           id="path680" />
        <path
           style="color:#000000;-inkscape-font-specification:'Ecolier_court, Normal';stroke:none;-inkscape-stroke:none"
           d="m 214.41992,27.501953 c -0.67814,0 -1.35408,0.174421 -2.00781,0.5 -0.78403,0.370582 -1.44275,1.124912 -2.06445,2.212891 h 0.002 c -0.90275,1.569999 -1.3678,3.408034 -1.40625,5.484375 v 0.0039 0.0059 c 0,0.247344 0.0199,0.508048 0.0586,0.783203 0.0793,0.859332 0.27818,1.683712 0.5918,2.46875 4.7e-4,0.0012 -4.7e-4,0.0027 0,0.0039 0.32276,0.843592 0.79689,1.552098 1.42187,2.09375 l 0.084,0.08398 0.0664,0.03711 c 0.45385,0.244382 0.74871,0.390783 0.98046,0.488282 0.002,0.0014 0.007,0.0025 0.01,0.0039 0.25469,0.151547 0.5833,0.281022 1.04102,0.433594 l 0.0391,0.01367 0.041,0.0059 c 0.47097,0.07849 0.92529,0.119141 1.36524,0.119141 0.82412,0 1.70095,-0.277061 2.64258,-0.78711 l 0.0781,-0.04297 0.0606,-0.06641 c 0.73836,-0.816082 1.31079,-1.680454 1.70703,-2.591797 l 0.002,-0.0039 0.002,-0.0059 c 0.31243,-0.763729 0.48862,-1.662239 0.61523,-2.613282 0.43569,0.108894 0.87733,0.207032 1.35352,0.207032 1.05872,0 2.08516,-0.288612 3.04687,-0.84961 l 0.25781,-0.15039 v -0.298828 -1.333985 l -0.79883,0.503906 c -0.94603,0.595653 -1.78017,0.865235 -2.50585,0.865235 -0.50415,0 -0.71935,-0.126698 -0.86719,-0.31836 -0.1695,-0.865777 -0.32705,-1.603418 -0.46875,-2.134765 v -0.0039 l -0.002,-0.0059 c -0.1566,-0.548106 -0.35351,-1.060548 -0.59179,-1.537109 l 0.0469,0.140625 c -0.0562,-0.309351 -0.23078,-0.614473 -0.49609,-0.796875 -0.0206,-0.01415 -0.0492,-0.0068 -0.0703,-0.01953 -0.0103,-0.02429 -0.015,-0.05195 -0.0254,-0.07617 l -0.008,-0.02148 -0.0117,-0.01953 c -0.58686,-1.095487 -1.25282,-1.874459 -2.0625,-2.279297 l -0.0156,-0.0078 -0.0156,-0.0078 c -0.75056,-0.316026 -1.44626,-0.486328 -2.0957,-0.486328 z m 0.83594,1.320313 c 0.1587,0 0.4874,0.110495 0.91601,0.404296 0.31701,0.245895 0.67688,0.747134 1.03516,1.283204 -0.19908,0.114782 -0.44412,0.131227 -0.58594,0.320312 -0.33518,0.44692 -0.4375,1.033646 -0.4375,1.759766 v 0.04297 l 0.006,0.04297 c 0.17168,1.030099 0.77192,1.921348 1.70703,2.613281 7.9e-4,5.83e-4 10e-4,0.0014 0.002,0.002 0.18661,0.143518 0.41149,0.210031 0.61328,0.324218 1.7e-4,0.02656 0.008,0.05154 0.008,0.07813 -0.10701,1.901587 -0.81355,3.421947 -2.14258,4.664063 -0.59369,0.387753 -1.10361,0.566406 -1.51172,0.566406 -0.33503,0 -0.65926,-0.133057 -1.01562,-0.417969 -0.52899,-0.674707 -0.87829,-1.346239 -1.03906,-2.021484 l -0.002,-0.0039 v -0.002 c -0.16979,-0.679174 -0.30161,-1.774392 -0.375,-3.242188 V 34.96681 c 0.0737,-0.995348 0.14833,-1.714165 0.2168,-2.125 l 0.004,-0.01953 0.002,-0.02148 c 0.0326,-0.391086 0.13878,-0.982883 0.31445,-1.726562 0.32032,-0.815361 0.56811,-1.37992 0.67578,-1.56836 0.10481,-0.183407 0.23651,-0.313162 0.41993,-0.417968 l 0.004,-0.002 0.006,-0.0039 c 0.26625,-0.15975 0.65072,-0.259765 1.17969,-0.259765 z m -2.58008,0.322265 c -0.17817,0.334831 -0.38215,0.800619 -0.68945,1.585938 l -0.0137,0.0332 -0.008,0.03516 c -0.18686,0.784881 -0.30152,1.40303 -0.34375,1.892578 -0.0792,0.480337 -0.15244,1.198592 -0.22656,2.199219 l -0.002,0.01953 v 0.365235 l 0.002,0.01367 c 0.0751,1.501526 0.20302,2.633631 0.4043,3.439454 1.1e-4,4.51e-4 -1.1e-4,0.0015 0,0.002 0.17694,0.739497 0.59465,1.440769 1.08594,2.126953 -0.0478,-0.02281 -0.17358,-0.06548 -0.20118,-0.08203 l -0.0371,-0.02148 -0.0371,-0.01563 c -0.12671,-0.05069 -0.45909,-0.216962 -0.88671,-0.445312 l -0.01,-0.0098 -0.0156,-0.01172 c -0.4867,-0.421798 -0.86356,-0.973622 -1.13477,-1.685547 l -0.002,-0.0039 -0.002,-0.0039 c -0.27813,-0.695324 -0.45161,-1.42472 -0.52148,-2.193359 v -0.01172 l -0.002,-0.01367 c -0.0337,-0.235704 -0.0503,-0.448989 -0.0508,-0.640625 v -0.0039 c 0.0363,-1.931597 0.46307,-3.583258 1.26758,-4.982422 0.50062,-0.876084 0.98482,-1.316881 1.42383,-1.587891 z m 4.97656,2.179688 c 0.23492,0.491071 0.46446,0.992264 0.60157,1.65039 0.0832,0.416498 0.0806,0.850924 0.125,1.275391 -0.6114,-0.513136 -1.02508,-1.059149 -1.14258,-1.716797 0.0111,-0.557894 0.11197,-0.938363 0.21679,-1.078125 0.0857,-0.114214 0.13866,-0.09967 0.19922,-0.130859 z"
           id="path682" />
      </g>
    </g>
  </g>
</svg>
